<?plantuml 1.2026.2?><svg xmlns="http://www.w3.org/2000/svg" xmlns:xlink="http://www.w3.org/1999/xlink" contentStyleType="text/css" data-diagram-type="SEQUENCE" height="1341px" preserveAspectRatio="none" style="width:863px;height:1341px;background:#FFFFFF;" version="1.1" viewBox="0 0 863 1341" width="863px" zoomAndPan="magnify"><defs/><g><g><title>RhoEvaluator</title><rect fill="#FFFFFF" height="748.9411" style="stroke:#181818;stroke-width:1;" width="10" x="289.9463" y="140.9276"/></g><g><title>RhoEvaluator</title><rect fill="#FFFFFF" height="240.837" style="stroke:#181818;stroke-width:1;" width="10" x="289.9463" y="961.8324"/></g><g><title>DebruijnInterpreter</title><rect fill="#FFFFFF" height="628.5653" style="stroke:#181818;stroke-width:1;" width="10" x="630.8863" y="232.3215"/></g><g><title>DebruijnInterpreter</title><rect fill="#FFFFFF" height="124.9094" style="stroke:#181818;stroke-width:1;" width="10" x="630.8863" y="990.8143"/></g><rect fill="none" height="825.4385" style="stroke:#000000;stroke-width:1.5;" width="782.4472" x="74.7119" y="247.3215"/><rect fill="none" height="294.7827" style="stroke:#000000;stroke-width:1.5;" width="284.0672" x="563.0919" y="271.3034"/><rect fill="none" height="427.7102" style="stroke:#000000;stroke-width:1.5;" width="762.4472" x="84.7119" y="638.0498"/><g class="participant-lifeline" data-entity-uid="part1" data-qualified-name="Caller" id="part1-lifeline"><g><title>Caller</title><rect fill="#000000" fill-opacity="0.00000" height="816.9049" width="8" x="18.7729" y="80.9638"/><line style="stroke:#181818;stroke-width:0.5;stroke-dasharray:5,5;" x1="22" x2="22" y1="80.9638" y2="897.8687"/></g><line style="stroke:#181818;stroke-width:0.5;stroke-dasharray:1,4;" x1="22" x2="22" y1="897.8687" y2="940.8506"/><g><title>Caller</title><rect fill="#000000" fill-opacity="0.00000" height="308.8008" width="8" x="18.7729" y="940.8506"/><line style="stroke:#181818;stroke-width:0.5;stroke-dasharray:5,5;" x1="22" x2="22" y1="940.8506" y2="1249.6513"/></g></g><g class="participant-lifeline" data-entity-uid="part2" data-qualified-name="W" id="part2-lifeline"><g><title>mettail Worker</title><rect fill="#000000" fill-opacity="0.00000" height="816.9049" width="8" x="139.8142" y="80.9638"/><line style="stroke:#181818;stroke-width:0.5;stroke-dasharray:5,5;" x1="143.7119" x2="143.7119" y1="80.9638" y2="897.8687"/></g><line style="stroke:#181818;stroke-width:0.5;stroke-dasharray:1,4;" x1="143.7119" x2="143.7119" y1="897.8687" y2="940.8506"/><g><title>mettail Worker</title><rect fill="#000000" fill-opacity="0.00000" height="308.8008" width="8" x="139.8142" y="940.8506"/><line style="stroke:#181818;stroke-width:0.5;stroke-dasharray:5,5;" x1="143.7119" x2="143.7119" y1="940.8506" y2="1249.6513"/></g></g><g class="participant-lifeline" data-entity-uid="part3" data-qualified-name="RE" id="part3-lifeline"><g><title>RhoEvaluator</title><rect fill="#000000" fill-opacity="0.00000" height="816.9049" width="8" x="290.9463" y="80.9638"/><line style="stroke:#181818;stroke-width:0.5;stroke-dasharray:5,5;" x1="294.2301" x2="294.2301" y1="80.9638" y2="897.8687"/></g><line style="stroke:#181818;stroke-width:0.5;stroke-dasharray:1,4;" x1="294.2301" x2="294.2301" y1="897.8687" y2="940.8506"/><g><title>RhoEvaluator</title><rect fill="#000000" fill-opacity="0.00000" height="308.8008" width="8" x="290.9463" y="940.8506"/><line style="stroke:#181818;stroke-width:0.5;stroke-dasharray:5,5;" x1="294.2301" x2="294.2301" y1="940.8506" y2="1249.6513"/></g></g><g class="participant-lifeline" data-entity-uid="part4" data-qualified-name="Obs" id="part4-lifeline"><g><title>Observer</title><rect fill="#000000" fill-opacity="0.00000" height="816.9049" width="8" x="485.9131" y="80.9638"/><line style="stroke:#181818;stroke-width:0.5;stroke-dasharray:5,5;" x1="489.2469" x2="489.2469" y1="80.9638" y2="897.8687"/></g><line style="stroke:#181818;stroke-width:0.5;stroke-dasharray:1,4;" x1="489.2469" x2="489.2469" y1="897.8687" y2="940.8506"/><g><title>Observer</title><rect fill="#000000" fill-opacity="0.00000" height="308.8008" width="8" x="485.9131" y="940.8506"/><line style="stroke:#181818;stroke-width:0.5;stroke-dasharray:5,5;" x1="489.2469" x2="489.2469" y1="940.8506" y2="1249.6513"/></g></g><g class="participant-lifeline" data-entity-uid="part5" data-qualified-name="DI" id="part5-lifeline"><g><title>DebruijnInterpreter</title><rect fill="#000000" fill-opacity="0.00000" height="816.9049" width="8" x="631.8863" y="80.9638"/><line style="stroke:#181818;stroke-width:0.5;stroke-dasharray:5,5;" x1="635.0919" x2="635.0919" y1="80.9638" y2="897.8687"/></g><line style="stroke:#181818;stroke-width:0.5;stroke-dasharray:1,4;" x1="635.0919" x2="635.0919" y1="897.8687" y2="940.8506"/><g><title>DebruijnInterpreter</title><rect fill="#000000" fill-opacity="0.00000" height="308.8008" width="8" x="631.8863" y="940.8506"/><line style="stroke:#181818;stroke-width:0.5;stroke-dasharray:5,5;" x1="635.0919" x2="635.0919" y1="940.8506" y2="1249.6513"/></g></g><g class="participant-lifeline" data-entity-uid="part6" data-qualified-name="RS" id="part6-lifeline"><g><title>RSpace</title><rect fill="#000000" fill-opacity="0.00000" height="816.9049" width="8" x="803.6053" y="80.9638"/><line style="stroke:#181818;stroke-width:0.5;stroke-dasharray:5,5;" x1="807.0515" x2="807.0515" y1="80.9638" y2="897.8687"/></g><line style="stroke:#181818;stroke-width:0.5;stroke-dasharray:1,4;" x1="807.0515" x2="807.0515" y1="897.8687" y2="940.8506"/><g><title>RSpace</title><rect fill="#000000" fill-opacity="0.00000" height="308.8008" width="8" x="803.6053" y="940.8506"/><line style="stroke:#181818;stroke-width:0.5;stroke-dasharray:5,5;" x1="807.0515" x2="807.0515" y1="940.8506" y2="1249.6513"/></g></g><g class="participant participant-head" data-entity-uid="part1" data-qualified-name="Caller" id="part1-head"><text fill="#000000" font-family="sans-serif" font-size="11" lengthAdjust="spacing" textLength="29.5458" x="5" y="77.7408">Caller</text><ellipse cx="22.7729" cy="14.4819" fill="#E2E2F0" rx="8" ry="8" style="stroke:#181818;stroke-width:0.5;"/><path d="M22.7729,22.4819 L22.7729,49.4819 M9.7729,30.4819 L35.7729,30.4819 M22.7729,49.4819 L9.7729,64.4819 M22.7729,49.4819 L35.7729,64.4819" fill="none" style="stroke:#181818;stroke-width:0.5;"/></g><g class="participant participant-tail" data-entity-uid="part1" data-qualified-name="Caller" id="part1-tail"><text fill="#000000" font-family="sans-serif" font-size="11" lengthAdjust="spacing" textLength="29.5458" x="5" y="1260.4102">Caller</text><ellipse cx="22.7729" cy="1272.1332" fill="#E2E2F0" rx="8" ry="8" style="stroke:#181818;stroke-width:0.5;"/><path d="M22.7729,1280.1332 L22.7729,1307.1332 M9.7729,1288.1332 L35.7729,1288.1332 M22.7729,1307.1332 L9.7729,1322.1332 M22.7729,1307.1332 L35.7729,1322.1332" fill="none" style="stroke:#181818;stroke-width:0.5;"/></g><g class="participant participant-head" data-entity-uid="part2" data-qualified-name="W" id="part2-head"><rect fill="#E2E2F0" height="46.6882" rx="2.5" ry="2.5" style="stroke:#181818;stroke-width:0.5;" width="98.2046" x="94.7119" y="33.2755"/><text fill="#000000" font-family="sans-serif" font-size="12" lengthAdjust="spacing" textLength="84.2046" x="101.7119" y="53.1036">mettail Worker</text><text fill="#000000" font-family="sans-serif" font-size="12" lengthAdjust="spacing" textLength="62.5084" x="112.56" y="69.4478">(scheduler)</text></g><g class="participant participant-tail" data-entity-uid="part2" data-qualified-name="W" id="part2-tail"><rect fill="#E2E2F0" height="46.6882" rx="2.5" ry="2.5" style="stroke:#181818;stroke-width:0.5;" width="98.2046" x="94.7119" y="1248.6513"/><text fill="#000000" font-family="sans-serif" font-size="12" lengthAdjust="spacing" textLength="84.2046" x="101.7119" y="1268.4794">mettail Worker</text><text fill="#000000" font-family="sans-serif" font-size="12" lengthAdjust="spacing" textLength="62.5084" x="112.56" y="1284.8235">(scheduler)</text></g><g class="participant participant-head" data-entity-uid="part3" data-qualified-name="RE" id="part3-head"><rect fill="#E2E2F0" height="30.3441" rx="2.5" ry="2.5" style="stroke:#181818;stroke-width:0.5;" width="89.4325" x="250.2301" y="49.6197"/><text fill="#000000" font-family="sans-serif" font-size="12" lengthAdjust="spacing" textLength="75.4325" x="257.2301" y="69.4478">RhoEvaluator</text></g><g class="participant participant-tail" data-entity-uid="part3" data-qualified-name="RE" id="part3-tail"><rect fill="#E2E2F0" height="30.3441" rx="2.5" ry="2.5" style="stroke:#181818;stroke-width:0.5;" width="89.4325" x="250.2301" y="1248.6513"/><text fill="#000000" font-family="sans-serif" font-size="12" lengthAdjust="spacing" textLength="75.4325" x="257.2301" y="1268.4794">RhoEvaluator</text></g><g class="participant participant-head" data-entity-uid="part4" data-qualified-name="Obs" id="part4-head"><rect fill="#E2E2F0" height="46.6882" rx="2.5" ry="2.5" style="stroke:#181818;stroke-width:0.5;" width="93.3326" x="443.2469" y="33.2755"/><text fill="#000000" font-family="sans-serif" font-size="12" lengthAdjust="spacing" textLength="52.0444" x="463.8909" y="53.1036">Observer</text><text fill="#000000" font-family="sans-serif" font-size="12" lengthAdjust="spacing" textLength="79.3326" x="450.2469" y="69.4478">(owned by RE)</text></g><g class="participant participant-tail" data-entity-uid="part4" data-qualified-name="Obs" id="part4-tail"><rect fill="#E2E2F0" height="46.6882" rx="2.5" ry="2.5" style="stroke:#181818;stroke-width:0.5;" width="93.3326" x="443.2469" y="1248.6513"/><text fill="#000000" font-family="sans-serif" font-size="12" lengthAdjust="spacing" textLength="52.0444" x="463.8909" y="1268.4794">Observer</text><text fill="#000000" font-family="sans-serif" font-size="12" lengthAdjust="spacing" textLength="79.3326" x="450.2469" y="1284.8235">(owned by RE)</text></g><g class="participant participant-head" data-entity-uid="part5" data-qualified-name="DI" id="part5-head"><rect fill="#E2E2F0" height="30.3441" rx="2.5" ry="2.5" style="stroke:#181818;stroke-width:0.5;" width="125.5888" x="573.0919" y="49.6197"/><text fill="#000000" font-family="sans-serif" font-size="12" lengthAdjust="spacing" textLength="111.5888" x="580.0919" y="69.4478">DebruijnInterpreter</text></g><g class="participant participant-tail" data-entity-uid="part5" data-qualified-name="DI" id="part5-tail"><rect fill="#E2E2F0" height="30.3441" rx="2.5" ry="2.5" style="stroke:#181818;stroke-width:0.5;" width="125.5888" x="573.0919" y="1248.6513"/><text fill="#000000" font-family="sans-serif" font-size="12" lengthAdjust="spacing" textLength="111.5888" x="580.0919" y="1268.4794">DebruijnInterpreter</text></g><g class="participant participant-head" data-entity-uid="part6" data-qualified-name="RS" id="part6-head"><text fill="#000000" font-family="sans-serif" font-size="11" lengthAdjust="spacing" textLength="37.3007" x="785.9549" y="62.7589">RSpace</text><text fill="#000000" font-family="sans-serif" font-size="11" lengthAdjust="spacing" textLength="53.1076" x="778.0515" y="77.7408">(PathMap)</text><path d="M789.6053,15 C789.6053,5 807.6053,5 807.6053,5 C807.6053,5 825.6053,5 825.6053,15 L825.6053,41 C825.6053,51 807.6053,51 807.6053,51 C807.6053,51 789.6053,51 789.6053,41 L789.6053,15" fill="#E2E2F0" style="stroke:#181818;stroke-width:0.5;"/><path d="M789.6053,15 C789.6053,25 807.6053,25 807.6053,25 C807.6053,25 825.6053,25 825.6053,15" fill="none" style="stroke:#181818;stroke-width:0.5;"/></g><g class="participant participant-tail" data-entity-uid="part6" data-qualified-name="RS" id="part6-tail"><text fill="#000000" font-family="sans-serif" font-size="11" lengthAdjust="spacing" textLength="37.3007" x="785.9549" y="1260.4102">RSpace</text><text fill="#000000" font-family="sans-serif" font-size="11" lengthAdjust="spacing" textLength="53.1076" x="778.0515" y="1275.3921">(PathMap)</text><path d="M789.6053,1288.6151 C789.6053,1278.6151 807.6053,1278.6151 807.6053,1278.6151 C807.6053,1278.6151 825.6053,1278.6151 825.6053,1288.6151 L825.6053,1314.6151 C825.6053,1324.6151 807.6053,1324.6151 807.6053,1324.6151 C807.6053,1324.6151 789.6053,1324.6151 789.6053,1314.6151 L789.6053,1288.6151" fill="#E2E2F0" style="stroke:#181818;stroke-width:0.5;"/><path d="M789.6053,1288.6151 C789.6053,1298.6151 807.6053,1298.6151 807.6053,1298.6151 C807.6053,1298.6151 825.6053,1298.6151 825.6053,1288.6151" fill="none" style="stroke:#181818;stroke-width:0.5;"/></g><g><title>RhoEvaluator</title><rect fill="#FFFFFF" height="748.9411" style="stroke:#181818;stroke-width:1;" width="10" x="289.9463" y="140.9276"/></g><g><title>RhoEvaluator</title><rect fill="#FFFFFF" height="240.837" style="stroke:#181818;stroke-width:1;" width="10" x="289.9463" y="961.8324"/></g><g><title>DebruijnInterpreter</title><rect fill="#FFFFFF" height="628.5653" style="stroke:#181818;stroke-width:1;" width="10" x="630.8863" y="232.3215"/></g><g><title>DebruijnInterpreter</title><rect fill="#FFFFFF" height="124.9094" style="stroke:#181818;stroke-width:1;" width="10" x="630.8863" y="990.8143"/></g><g class="message" data-entity-1="part1" data-entity-2="part2" id="msg1"><polygon fill="#181818" points="131.8142,107.9457,141.8142,111.9457,131.8142,115.9457,135.8142,111.9457" style="stroke:#181818;stroke-width:1;"/><line style="stroke:#181818;stroke-width:1;" x1="22.7729" x2="137.8142" y1="111.9457" y2="111.9457"/><text fill="#000000" font-family="sans-serif" font-size="11" lengthAdjust="spacing" textLength="97.0413" x="29.7729" y="106.7227">start_session(expr)</text></g><g class="message" data-entity-1="part2" data-entity-2="part3" id="msg2"><polygon fill="#181818" points="277.9463,136.9276,287.9463,140.9276,277.9463,144.9276,281.9463,140.9276" style="stroke:#181818;stroke-width:1;"/><line style="stroke:#181818;stroke-width:1;" x1="143.8142" x2="283.9463" y1="140.9276" y2="140.9276"/><text fill="#000000" font-family="sans-serif" font-size="11" lengthAdjust="spacing" textLength="97.0413" x="150.8142" y="135.7046">start_session(expr)</text></g><g class="message" data-entity-1="part3" data-entity-2="part3" id="msg3"><line style="stroke:#181818;stroke-width:1;" x1="299.9463" x2="341.9463" y1="190.3396" y2="190.3396"/><line style="stroke:#181818;stroke-width:1;" x1="341.9463" x2="341.9463" y1="190.3396" y2="203.3396"/><line style="stroke:#181818;stroke-width:1;" x1="300.9463" x2="341.9463" y1="203.3396" y2="203.3396"/><polygon fill="#181818" points="310.9463,199.3396,300.9463,203.3396,310.9463,207.3396,306.9463,203.3396" style="stroke:#181818;stroke-width:1;"/><text fill="#000000" font-family="sans-serif" font-size="11" lengthAdjust="spacing" textLength="60.3566" x="306.9463" y="164.6865">allocate Par</text><text fill="#000000" font-family="sans-serif" font-size="15" font-weight="bold" lengthAdjust="spacing" textLength="121.3449" x="306.9463" y="183.9446">&#10214;expr&#10215; encoding</text></g><g class="message" data-entity-1="part3" data-entity-2="part5" id="msg4"><polygon fill="#181818" points="618.8863,228.3215,628.8863,232.3215,618.8863,236.3215,622.8863,232.3215" style="stroke:#181818;stroke-width:1;"/><line style="stroke:#181818;stroke-width:1;" x1="299.9463" x2="624.8863" y1="232.3215" y2="232.3215"/><text fill="#000000" font-family="sans-serif" font-size="11" lengthAdjust="spacing" textLength="66.6375" x="306.9463" y="227.0985">inj(par, rand)</text></g><path d="M74.7119,247.3215 L143.6917,247.3215 L143.6917,254.3034 L133.6917,264.3034 L74.7119,264.3034 L74.7119,247.3215" fill="#EEEEEE" style="stroke:#000000;stroke-width:1.5;"/><rect fill="none" height="825.4385" style="stroke:#000000;stroke-width:1.5;" width="782.4472" x="74.7119" y="247.3215"/><text fill="#000000" font-family="sans-serif" font-size="11" font-weight="bold" lengthAdjust="spacing" textLength="23.9798" x="89.7119" y="260.0804">loop</text><text fill="#000000" font-family="sans-serif" font-size="11" font-weight="bold" lengthAdjust="spacing" textLength="157.7168" x="158.6917" y="261.0804">[until normal form OR Abort]</text><path d="M563.0919,271.3034 L622.7328,271.3034 L622.7328,278.2852 L612.7328,288.2852 L563.0919,288.2852 L563.0919,271.3034" fill="#EEEEEE" style="stroke:#000000;stroke-width:1.5;"/><rect fill="none" height="294.7827" style="stroke:#000000;stroke-width:1.5;" width="284.0672" x="563.0919" y="271.3034"/><text fill="#000000" font-family="sans-serif" font-size="11" font-weight="bold" lengthAdjust="spacing" textLength="14.6409" x="578.0919" y="284.0623">alt</text><text fill="#000000" font-family="sans-serif" font-size="11" font-weight="bold" lengthAdjust="spacing" textLength="107.4472" x="637.7328" y="285.0623">[deterministic step]</text><g class="message" data-entity-1="part5" data-entity-2="part6" id="msg5"><polygon fill="#181818" points="795.6053,305.2671,805.6053,309.2671,795.6053,313.2671,799.6053,309.2671" style="stroke:#181818;stroke-width:1;"/><line style="stroke:#181818;stroke-width:1;" x1="640.8863" x2="801.6053" y1="309.2671" y2="309.2671"/><text fill="#000000" font-family="sans-serif" font-size="11" lengthAdjust="spacing" textLength="103.5423" x="647.8863" y="304.0442">produce(chan, data)</text></g><g class="message" data-entity-1="part6" data-entity-2="part5" id="msg6"><polygon fill="#181818" points="651.8863,334.249,641.8863,338.249,651.8863,342.249,647.8863,338.249" style="stroke:#181818;stroke-width:1;"/><line style="stroke:#181818;stroke-width:1;stroke-dasharray:2,2;" x1="645.8863" x2="806.6053" y1="338.249" y2="338.249"/><text fill="#000000" font-family="sans-serif" font-size="11" lengthAdjust="spacing" textLength="131.7681" x="657.8863" y="333.026">ack (or immediate match)</text></g><g class="message" data-entity-1="part5" data-entity-2="part6" id="msg7"><polygon fill="#181818" points="795.6053,363.2309,805.6053,367.2309,795.6053,371.2309,799.6053,367.2309" style="stroke:#181818;stroke-width:1;"/><line style="stroke:#181818;stroke-width:1;" x1="640.8863" x2="801.6053" y1="367.2309" y2="367.2309"/><text fill="#000000" font-family="sans-serif" font-size="11" lengthAdjust="spacing" textLength="123.1661" x="647.8863" y="362.0079">consume(chan, pattern)</text></g><g class="message" data-entity-1="part6" data-entity-2="part5" id="msg8"><polygon fill="#181818" points="651.8863,407.1947,641.8863,411.1947,651.8863,415.1947,647.8863,411.1947" style="stroke:#181818;stroke-width:1;"/><line style="stroke:#181818;stroke-width:1;stroke-dasharray:2,2;" x1="645.8863" x2="806.6053" y1="411.1947" y2="411.1947"/><text fill="#000000" font-family="sans-serif" font-size="11" lengthAdjust="spacing" textLength="60.9946" x="657.8863" y="390.9898">COMM fires</text><text fill="#000000" font-family="sans-serif" font-size="11" lengthAdjust="spacing" textLength="136.278" x="657.8863" y="405.9717">&#8212; continuation + bindings</text></g><line style="stroke:#000000;stroke-width:1;stroke-dasharray:2,2;" x1="563.0919" x2="847.1591" y1="420.1947" y2="420.1947"/><text fill="#000000" font-family="sans-serif" font-size="11" font-weight="bold" lengthAdjust="spacing" textLength="199.0436" x="568.0919" y="431.9536">[non-confluent rewrite (Lookahead)]</text><g class="message" data-entity-1="part5" data-entity-2="part5" id="msg9"><line style="stroke:#181818;stroke-width:1;" x1="640.8863" x2="682.8863" y1="472.1403" y2="472.1403"/><line style="stroke:#181818;stroke-width:1;" x1="682.8863" x2="682.8863" y1="472.1403" y2="485.1403"/><line style="stroke:#181818;stroke-width:1;" x1="641.8863" x2="682.8863" y1="485.1403" y2="485.1403"/><polygon fill="#181818" points="651.8863,481.1403,641.8863,485.1403,651.8863,489.1403,647.8863,485.1403" style="stroke:#181818;stroke-width:1;"/><text fill="#000000" font-family="sans-serif" font-size="11" lengthAdjust="spacing" textLength="36.0687" x="647.8863" y="451.9355">x!(P)[n]</text><text fill="#000000" font-family="sans-serif" font-size="11" lengthAdjust="spacing" textLength="137.719" x="647.8863" y="466.9174">speculative branch fan-out</text></g><g class="message" data-entity-1="part5" data-entity-2="part6" id="msg10"><polygon fill="#181818" points="795.6053,510.1222,805.6053,514.1222,795.6053,518.1222,799.6053,514.1222" style="stroke:#181818;stroke-width:1;"/><line style="stroke:#181818;stroke-width:1;" x1="640.8863" x2="801.6053" y1="514.1222" y2="514.1222"/><text fill="#000000" font-family="sans-serif" font-size="11" lengthAdjust="spacing" textLength="117.5672" x="647.8863" y="508.8993">collect PathMap leaves</text></g><g class="message" data-entity-1="part6" data-entity-2="part5" id="msg11"><polygon fill="#181818" points="651.8863,554.086,641.8863,558.086,651.8863,562.086,647.8863,558.086" style="stroke:#181818;stroke-width:1;"/><line style="stroke:#181818;stroke-width:1;stroke-dasharray:2,2;" x1="645.8863" x2="806.6053" y1="558.086" y2="558.086"/><text fill="#000000" font-family="sans-serif" font-size="11" lengthAdjust="spacing" textLength="91.6844" x="657.8863" y="537.8811">success PathMap,</text><text fill="#000000" font-family="sans-serif" font-size="11" lengthAdjust="spacing" textLength="82.5434" x="657.8863" y="552.863">failure PathMap</text></g><g class="message" data-entity-1="part5" data-entity-2="part4" id="msg12"><polygon fill="#181818" points="500.9131,590.0679,490.9131,594.0679,500.9131,598.0679,496.9131,594.0679" style="stroke:#181818;stroke-width:1;"/><line style="stroke:#181818;stroke-width:1;" x1="494.9131" x2="629.8863" y1="594.0679" y2="594.0679"/><text fill="#000000" font-family="sans-serif" font-size="11" lengthAdjust="spacing" textLength="116.2801" x="506.9131" y="588.8449">on_event(e : CekEvent)</text></g><g class="message" data-entity-1="part4" data-entity-2="part5" id="msg13"><polygon fill="#181818" points="618.8863,619.0498,628.8863,623.0498,618.8863,627.0498,622.8863,623.0498" style="stroke:#181818;stroke-width:1;"/><line style="stroke:#181818;stroke-width:1;stroke-dasharray:2,2;" x1="489.9131" x2="624.8863" y1="623.0498" y2="623.0498"/><text fill="#000000" font-family="sans-serif" font-size="11" lengthAdjust="spacing" textLength="57.4416" x="496.9131" y="617.8268">CekControl</text></g><path d="M84.7119,638.0498 L144.3528,638.0498 L144.3528,645.0317 L134.3528,655.0317 L84.7119,655.0317 L84.7119,638.0498" fill="#EEEEEE" style="stroke:#000000;stroke-width:1.5;"/><rect fill="none" height="427.7102" style="stroke:#000000;stroke-width:1.5;" width="762.4472" x="84.7119" y="638.0498"/><text fill="#000000" font-family="sans-serif" font-size="11" font-weight="bold" lengthAdjust="spacing" textLength="14.6409" x="99.7119" y="650.8087">alt</text><text fill="#000000" font-family="sans-serif" font-size="11" font-weight="bold" lengthAdjust="spacing" textLength="124.8601" x="159.3528" y="651.8087">[CekControl::Continue]</text><path d="M551,660.0317 L551,684.0317 L718,684.0317 L718,670.0317 L708,660.0317 L551,660.0317" fill="#FEFFDD" style="stroke:#181818;stroke-width:0.5;"/><path d="M708,660.0317 L708,670.0317 L718,670.0317 L708,660.0317" fill="#FEFFDD" style="stroke:#181818;stroke-width:0.5;"/><text fill="#000000" font-family="sans-serif" font-size="11" lengthAdjust="spacing" textLength="146.805" x="557" y="676.7906">fall through to next iteration</text><line style="stroke:#000000;stroke-width:1;stroke-dasharray:2,2;" x1="84.7119" x2="847.1591" y1="691.0136" y2="691.0136"/><text fill="#000000" font-family="sans-serif" font-size="11" font-weight="bold" lengthAdjust="spacing" textLength="137.158" x="89.7119" y="702.7725">[CekControl::Checkpoint]</text><g class="message" data-entity-1="part5" data-entity-2="part6" id="msg14"><polygon fill="#181818" points="795.6053,723.9773,805.6053,727.9773,795.6053,731.9773,799.6053,727.9773" style="stroke:#181818;stroke-width:1;"/><line style="stroke:#181818;stroke-width:1;" x1="640.8863" x2="801.6053" y1="727.9773" y2="727.9773"/><text fill="#000000" font-family="sans-serif" font-size="11" lengthAdjust="spacing" textLength="54.2956" x="647.8863" y="722.7544">snapshot()</text></g><g class="message" data-entity-1="part6" data-entity-2="part5" id="msg15"><polygon fill="#181818" points="651.8863,752.9592,641.8863,756.9592,651.8863,760.9592,647.8863,756.9592" style="stroke:#181818;stroke-width:1;"/><line style="stroke:#181818;stroke-width:1;stroke-dasharray:2,2;" x1="645.8863" x2="806.6053" y1="756.9592" y2="756.9592"/><text fill="#000000" font-family="sans-serif" font-size="11" lengthAdjust="spacing" textLength="74.2275" x="657.8863" y="751.7363">RSpaceHandle</text></g><g class="message" data-entity-1="part5" data-entity-2="part4" id="msg16"><polygon fill="#181818" points="500.9131,781.9411,490.9131,785.9411,500.9131,789.9411,496.9131,785.9411" style="stroke:#181818;stroke-width:1;"/><line style="stroke:#181818;stroke-width:1;" x1="494.9131" x2="629.8863" y1="785.9411" y2="785.9411"/><text fill="#000000" font-family="sans-serif" font-size="11" lengthAdjust="spacing" textLength="116.9731" x="506.9131" y="780.7181">on_checkpoint(handle)</text></g><g class="message" data-entity-1="part4" data-entity-2="part5" id="msg17"><polygon fill="#181818" points="618.8863,810.923,628.8863,814.923,618.8863,818.923,622.8863,814.923" style="stroke:#181818;stroke-width:1;"/><line style="stroke:#181818;stroke-width:1;stroke-dasharray:2,2;" x1="489.9131" x2="624.8863" y1="814.923" y2="814.923"/><text fill="#000000" font-family="sans-serif" font-size="11" lengthAdjust="spacing" textLength="23.9248" x="496.9131" y="809.7">(ack)</text></g><line style="stroke:#000000;stroke-width:1;stroke-dasharray:2,2;" x1="84.7119" x2="847.1591" y1="823.923" y2="823.923"/><text fill="#000000" font-family="sans-serif" font-size="11" font-weight="bold" lengthAdjust="spacing" textLength="107.5022" x="89.7119" y="835.6819">[CekControl::Pause]</text><g class="message" data-entity-1="part5" data-entity-2="part3" id="msg18"><polygon fill="#181818" points="310.9463,856.8868,300.9463,860.8868,310.9463,864.8868,306.9463,860.8868" style="stroke:#181818;stroke-width:1;"/><line style="stroke:#181818;stroke-width:1;stroke-dasharray:2,2;" x1="304.9463" x2="634.8863" y1="860.8868" y2="860.8868"/><text fill="#000000" font-family="sans-serif" font-size="11" lengthAdjust="spacing" textLength="63.0185" x="316.9463" y="855.6638">PauseResult</text></g><g class="message" data-entity-1="part3" data-entity-2="part2" id="msg19"><polygon fill="#181818" points="154.8142,885.8687,144.8142,889.8687,154.8142,893.8687,150.8142,889.8687" style="stroke:#181818;stroke-width:1;"/><line style="stroke:#181818;stroke-width:1;stroke-dasharray:2,2;" x1="148.8142" x2="293.9463" y1="889.8687" y2="889.8687"/><text fill="#000000" font-family="sans-serif" font-size="11" lengthAdjust="spacing" textLength="122.1321" x="160.8142" y="884.6457">paused (yield quantum)</text></g><text fill="#000000" font-family="sans-serif" font-size="11" lengthAdjust="spacing" textLength="256.6281" x="286.875" y="923.6276">scheduler parks session until PauseResume event</text><g class="message" data-entity-1="part2" data-entity-2="part3" id="msg20"><polygon fill="#181818" points="277.9463,957.8324,287.9463,961.8324,277.9463,965.8324,281.9463,961.8324" style="stroke:#181818;stroke-width:1;"/><line style="stroke:#181818;stroke-width:1;" x1="143.8142" x2="283.9463" y1="961.8324" y2="961.8324"/><text fill="#000000" font-family="sans-serif" font-size="11" lengthAdjust="spacing" textLength="84.2044" x="150.8142" y="956.6095">resume(session)</text></g><g class="message" data-entity-1="part3" data-entity-2="part5" id="msg21"><polygon fill="#181818" points="618.8863,986.8143,628.8863,990.8143,618.8863,994.8143,622.8863,990.8143" style="stroke:#181818;stroke-width:1;"/><line style="stroke:#181818;stroke-width:1;" x1="299.9463" x2="624.8863" y1="990.8143" y2="990.8143"/><text fill="#000000" font-family="sans-serif" font-size="11" lengthAdjust="spacing" textLength="63.2605" x="306.9463" y="985.5914">resume_inj()</text></g><line style="stroke:#000000;stroke-width:1;stroke-dasharray:2,2;" x1="84.7119" x2="847.1591" y1="999.8143" y2="999.8143"/><text fill="#000000" font-family="sans-serif" font-size="11" font-weight="bold" lengthAdjust="spacing" textLength="105.9732" x="89.7119" y="1011.5732">[CekControl::Abort]</text><path d="M561,1020.7962 L561,1059.7962 L709,1059.7962 L709,1030.7962 L699,1020.7962 L561,1020.7962" fill="#FEFFDD" style="stroke:#181818;stroke-width:0.5;"/><path d="M699,1020.7962 L699,1030.7962 L709,1030.7962 L699,1020.7962" fill="#FEFFDD" style="stroke:#181818;stroke-width:0.5;"/><text fill="#000000" font-family="sans-serif" font-size="11" lengthAdjust="spacing" textLength="55.3296" x="567" y="1037.5551">break loop</text><text fill="#000000" font-family="sans-serif" font-size="11" lengthAdjust="spacing" textLength="127.1921" x="567" y="1052.537">(will emit Aborted result)</text><g class="message" data-entity-1="part5" data-entity-2="part3" id="msg22"><polygon fill="#181818" points="310.9463,1111.7238,300.9463,1115.7238,310.9463,1119.7238,306.9463,1115.7238" style="stroke:#181818;stroke-width:1;"/><line style="stroke:#181818;stroke-width:1;stroke-dasharray:2,2;" x1="304.9463" x2="634.8863" y1="1115.7238" y2="1115.7238"/><text fill="#000000" font-family="sans-serif" font-size="11" lengthAdjust="spacing" textLength="29.6228" x="316.9463" y="1095.5189">result</text><text fill="#000000" font-family="sans-serif" font-size="11" lengthAdjust="spacing" textLength="156.0119" x="316.9463" y="1110.5008">(normal-form Par OR Aborted)</text></g><g class="message" data-entity-1="part3" data-entity-2="part4" id="msg23"><polygon fill="#181818" points="477.9131,1140.7057,487.9131,1144.7057,477.9131,1148.7057,481.9131,1144.7057" style="stroke:#181818;stroke-width:1;"/><line style="stroke:#181818;stroke-width:1;" x1="299.9463" x2="483.9131" y1="1144.7057" y2="1144.7057"/><text fill="#000000" font-family="sans-serif" font-size="11" lengthAdjust="spacing" textLength="165.9668" x="306.9463" y="1139.4827">on_completion(trace : PdaTrace)</text></g><g class="message" data-entity-1="part4" data-entity-2="part3" id="msg24"><polygon fill="#181818" points="310.9463,1169.6875,300.9463,1173.6875,310.9463,1177.6875,306.9463,1173.6875" style="stroke:#181818;stroke-width:1;"/><line style="stroke:#181818;stroke-width:1;stroke-dasharray:2,2;" x1="304.9463" x2="488.9131" y1="1173.6875" y2="1173.6875"/><text fill="#000000" font-family="sans-serif" font-size="11" lengthAdjust="spacing" textLength="23.9248" x="316.9463" y="1168.4646">(ack)</text></g><g class="message" data-entity-1="part3" data-entity-2="part2" id="msg25"><polygon fill="#181818" points="154.8142,1198.6694,144.8142,1202.6694,154.8142,1206.6694,150.8142,1202.6694" style="stroke:#181818;stroke-width:1;"/><line style="stroke:#181818;stroke-width:1;stroke-dasharray:2,2;" x1="148.8142" x2="293.9463" y1="1202.6694" y2="1202.6694"/><text fill="#000000" font-family="sans-serif" font-size="11" lengthAdjust="spacing" textLength="68.0785" x="160.8142" y="1197.4465">RhoOutcome</text></g><g class="message" data-entity-1="part2" data-entity-2="part1" id="msg26"><polygon fill="#181818" points="33.7729,1227.6513,23.7729,1231.6513,33.7729,1235.6513,29.7729,1231.6513" style="stroke:#181818;stroke-width:1;"/><line style="stroke:#181818;stroke-width:1;stroke-dasharray:2,2;" x1="27.7729" x2="142.8142" y1="1231.6513" y2="1231.6513"/><text fill="#000000" font-family="sans-serif" font-size="11" lengthAdjust="spacing" textLength="29.6228" x="39.7729" y="1226.4283">result</text></g><?plantuml-src TLJBRjim4BppAxOvIMWS83q6Q870ST403Hmu1NAeYu2crX4ZQQdouIGzzIDwxwtzhtn9bvJaPthnWpixNCxihgiqjTBA1WfSob3xZuRyZVw1S7egt3fuRgrvV3rqBQtNIhUIjdBV2I6LDnR6igxHYdO3WgC6lPUwXbjZAxHpofmgiGYCouz0EhZTXSzACrd9EaZcI_7PP1SmNJYqgyHa7WaBM3mpfkFYs2xu0XSsw0Uw98-sjSYV2NXnAGhfvK8wv2jlMgcG-QwbBwzast7DReJetWEZ3t0BP-0yKzyvT4uRol2fjRcuZS7Pv3zHLaMlfCVu2C6e0SkqHiLpbdDEx-7bzv-OyFBxBo0fKsYwx-4NbmpNz93niux1IYgsMFaLeZQcXK2U5IPZ6rd3ahzWEeFpXR5U05_csMv-UQD9EzQ6IyMM0n3POqatV4ThJH4KPggKT0nHd3n1E3WQwf2gWenjras3XOuLDDAhCj_dKePSQ0QkLdg-d0xfnjEhArXgYsvEBpz_nJIlYPrd0U4jB3H58HpdOSq-aQ4HGvPrGBRMugFLN47ssPXAbYYBxJ8I_zERx3h_Ij_cv5fKeMRY5SA2HLGbB2MDJF27fRFZoaFV2b2ZNA4xADq5fTZf0NOyfoNtUB0udCIYgH1Y8EVEv3H3TxZYwZECpyTg4l_4kcDuemjMOvR2cbhqzcrEpix6dKgOQYB34XYUXYvpoOq5lhGct9VW3H0-UM2LRD9q47A7hKHLjKRJWHAEPEjAuxD3uxg1-SJDMEDMslgDQasQbGdKKUmyCkDcob-hw5e6js4T9YQTpj3npagn0hUd81KuIUWug6q45v0zQwmB-1vu5OGcty_ZcOmd9oSdwut4cRPoq0znFrRhgnk4v1vdfCpDxDiKpVgyxgRzUxRckOFVnR7UmwQt74WoJFA1tmkBieAu0dXxFMes7nljkybd0MpIA-zxCVNZjgPTc3ExnJ5AYuCtqdfv8C_Khj3zLjeuRPgsnjXScRVS4z6fGdw9FtCn-9qkw_mMMoxnffy6pmmeTbs9IvKn_V8Twlm7?></g></svg>