<svg xmlns="http://www.w3.org/2000/svg" xmlns:xlink="http://www.w3.org/1999/xlink" contentStyleType="text/css" data-diagram-type="ACTIVITY" height="782px" preserveAspectRatio="none" style="width:699px;height:782px;background:#FEFEFE;" version="1.1" viewBox="0 0 699 782" width="699px" zoomAndPan="magnify"><?plantuml $version$?><defs/><g><rect fill="#FEFEFE" height="782" style="stroke:none;stroke-width:1;" width="699" x="0" y="0"/><g class="title" data-source-line="1"><text fill="#000000" font-family="sans-serif" font-size="14" font-weight="700" lengthAdjust="spacing" textLength="298.9829" x="199.0475" y="34.9659">Dovetail Lazy Best-First Extraction Frontier</text></g><ellipse cx="329.8777" cy="65.0679" fill="#222222" rx="10" ry="10" style="stroke:#222222;stroke-width:1;"/><rect fill="#F1F1F1" height="36.3441" rx="12.5" ry="12.5" style="stroke:#1F2937;stroke-width:0.5;" width="128.5768" x="265.5893" y="95.0679"/><text fill="#111827" font-family="sans-serif" font-size="12" lengthAdjust="spacing" textLength="108.5768" x="275.5893" y="117.896">Initialize class state</text><rect fill="#F1F1F1" height="52.6882" rx="12.5" ry="12.5" style="stroke:#1F2937;stroke-width:0.5;" width="222.1534" x="218.8009" y="151.412"/><text fill="#111827" font-family="sans-serif" font-size="12" lengthAdjust="spacing" textLength="202.1534" x="228.8009" y="174.2401">Seed heap with zero-rank candidate</text><text fill="#111827" font-family="sans-serif" font-size="12" lengthAdjust="spacing" textLength="88.7166" x="228.8009" y="190.5842">for each e-node</text><rect fill="#F1F1F1" height="52.6882" rx="12.5" ry="12.5" style="stroke:#1F2937;stroke-width:0.5;" width="144.5849" x="257.5852" y="268.1003"/><text fill="#111827" font-family="sans-serif" font-size="12" lengthAdjust="spacing" textLength="124.5849" x="267.5852" y="290.9283">Pop best candidate by</text><text fill="#111827" font-family="sans-serif" font-size="12" lengthAdjust="spacing" textLength="104.3167" x="267.5852" y="307.2725">(weight, exact key)</text><rect fill="#F1F1F1" height="52.6882" rx="12.5" ry="12.5" style="stroke:#1F2937;stroke-width:0.5;" width="207.5374" x="226.109" y="340.7885"/><text fill="#111827" font-family="sans-serif" font-size="12" lengthAdjust="spacing" textLength="187.5374" x="236.109" y="363.6166">Generate successors by bumping</text><text fill="#111827" font-family="sans-serif" font-size="12" lengthAdjust="spacing" textLength="132.5169" x="236.109" y="379.9607">one child rank at a time</text><rect fill="#F1F1F1" height="36.3441" rx="12.5" ry="12.5" style="stroke:#1F2937;stroke-width:0.5;" width="159.417" x="250.1691" y="413.4767"/><text fill="#111827" font-family="sans-serif" font-size="12" lengthAdjust="spacing" textLength="139.417" x="260.1691" y="436.3048">Compose derivation tree</text><polygon fill="#F1F1F1" points="37,489.8208,123.4154,489.8208,135.4154,501.8208,123.4154,513.8208,37,513.8208,25,501.8208,37,489.8208" style="stroke:#1F2937;stroke-width:0.5;stroke-linejoin:miter;stroke-miterlimit:10;"/><text fill="#000000" font-family="sans-serif" font-size="11" lengthAdjust="spacing" textLength="17.0829" x="84.2077" y="525.5797">yes</text><text fill="#111827" font-family="sans-serif" font-size="11" lengthAdjust="spacing" textLength="86.4154" x="37" y="506.0888">cycle back-edge?</text><rect fill="#F1F1F1" height="52.6882" rx="12.5" ry="12.5" style="stroke:#1F2937;stroke-width:0.5;" width="125.0607" x="17.6773" y="547.0797"/><text fill="#111827" font-family="sans-serif" font-size="12" lengthAdjust="spacing" textLength="83.4486" x="27.6773" y="569.9078">Mark cycle cut;</text><text fill="#111827" font-family="sans-serif" font-size="12" lengthAdjust="spacing" textLength="105.0607" x="27.6773" y="586.2519">skip this candidate</text><polygon fill="#F1F1F1" points="196.6434,489.8208,273.0378,489.8208,285.0378,501.8208,273.0378,513.8208,196.6434,513.8208,184.6434,501.8208,196.6434,489.8208" style="stroke:#1F2937;stroke-width:0.5;stroke-linejoin:miter;stroke-miterlimit:10;"/><text fill="#000000" font-family="sans-serif" font-size="11" lengthAdjust="spacing" textLength="17.0829" x="238.8406" y="525.5797">yes</text><text fill="#111827" font-family="sans-serif" font-size="11" lengthAdjust="spacing" textLength="76.3945" x="196.6434" y="506.0888">weight is zero?</text><rect fill="#F1F1F1" height="52.6882" rx="12.5" ry="12.5" style="stroke:#1F2937;stroke-width:0.5;" width="164.205" x="152.7381" y="547.0797"/><text fill="#111827" font-family="sans-serif" font-size="12" lengthAdjust="spacing" textLength="93.1447" x="162.7381" y="569.9078">Treat as refuted;</text><text fill="#111827" font-family="sans-serif" font-size="12" lengthAdjust="spacing" textLength="144.205" x="162.7381" y="586.2519">keep successors available</text><polygon fill="#F1F1F1" points="348.9431,489.8208,485.9692,489.8208,497.9692,501.8208,485.9692,513.8208,348.9431,513.8208,336.9431,501.8208,348.9431,489.8208" style="stroke:#1F2937;stroke-width:0.5;stroke-linejoin:miter;stroke-miterlimit:10;"/><text fill="#000000" font-family="sans-serif" font-size="11" lengthAdjust="spacing" textLength="17.0829" x="421.4561" y="525.5797">yes</text><text fill="#111827" font-family="sans-serif" font-size="11" lengthAdjust="spacing" textLength="137.026" x="348.9431" y="506.0888">exact key already emitted?</text><text fill="#000000" font-family="sans-serif" font-size="11" lengthAdjust="spacing" textLength="13.4529" x="497.9692" y="498.5979">no</text><rect fill="#F1F1F1" height="36.3441" rx="12.5" ry="12.5" style="stroke:#1F2937;stroke-width:0.5;" width="124.4967" x="355.2078" y="547.0797"/><text fill="#111827" font-family="sans-serif" font-size="12" lengthAdjust="spacing" textLength="104.4967" x="365.2078" y="569.9078">Skip duplicate tree</text><rect fill="#F1F1F1" height="36.3441" rx="12.5" ry="12.5" style="stroke:#1F2937;stroke-width:0.5;" width="134.1088" x="517.9692" y="550.7609"/><text fill="#111827" font-family="sans-serif" font-size="12" lengthAdjust="spacing" textLength="114.1088" x="527.9692" y="573.5889">Emit derivation item</text><polygon fill="#F1F1F1" points="329.8777,224.1003,341.8777,236.1003,329.8777,248.1003,317.8777,236.1003,329.8777,224.1003" style="stroke:#1F2937;stroke-width:0.5;stroke-linejoin:miter;stroke-miterlimit:10;"/><polygon fill="#F1F1F1" points="274.427,639.768,385.3283,639.768,397.3283,651.768,385.3283,663.768,274.427,663.768,262.427,651.768,274.427,639.768" style="stroke:#1F2937;stroke-width:0.5;stroke-linejoin:miter;stroke-miterlimit:10;"/><text fill="#111827" font-family="sans-serif" font-size="11" lengthAdjust="spacing" textLength="110.9012" x="274.427" y="656.0359">heap has candidates?</text><text fill="#000000" font-family="sans-serif" font-size="11" lengthAdjust="spacing" textLength="17.0829" x="397.3283" y="648.545">yes</text><rect fill="#F1F1F1" height="36.3441" rx="12.5" ry="12.5" style="stroke:#1F2937;stroke-width:0.5;" width="177.1411" x="241.3071" y="683.768"/><text fill="#111827" font-family="sans-serif" font-size="12" lengthAdjust="spacing" textLength="157.1411" x="251.3071" y="706.5961">Return Done(completeness)</text><ellipse cx="329.8777" cy="751.1121" fill="none" rx="11" ry="11" style="stroke:#222222;stroke-width:1;"/><ellipse cx="329.8777" cy="751.1121" fill="#222222" rx="6" ry="6" style="stroke:#222222;stroke-width:1;"/><line style="stroke:#374151;stroke-width:1.3;" x1="329.8777" x2="329.8777" y1="75.0679" y2="95.0679"/><polygon fill="#374151" points="325.8777,85.0679,329.8777,95.0679,333.8777,85.0679,329.8777,89.0679" style="stroke:#374151;stroke-width:1;stroke-linejoin:miter;stroke-miterlimit:10;"/><line style="stroke:#374151;stroke-width:1.3;" x1="329.8777" x2="329.8777" y1="131.412" y2="151.412"/><polygon fill="#374151" points="325.8777,141.412,329.8777,151.412,333.8777,141.412,329.8777,145.412" style="stroke:#374151;stroke-width:1;stroke-linejoin:miter;stroke-miterlimit:10;"/><line style="stroke:#374151;stroke-width:1.3;" x1="329.8777" x2="329.8777" y1="320.7885" y2="340.7885"/><polygon fill="#374151" points="325.8777,330.7885,329.8777,340.7885,333.8777,330.7885,329.8777,334.7885" style="stroke:#374151;stroke-width:1;stroke-linejoin:miter;stroke-miterlimit:10;"/><line style="stroke:#374151;stroke-width:1.3;" x1="329.8777" x2="329.8777" y1="393.4767" y2="413.4767"/><polygon fill="#374151" points="325.8777,403.4767,329.8777,413.4767,333.8777,403.4767,329.8777,407.4767" style="stroke:#374151;stroke-width:1;stroke-linejoin:miter;stroke-miterlimit:10;"/><line style="stroke:#374151;stroke-width:1.3;" x1="80.2077" x2="80.2077" y1="513.8208" y2="547.0797"/><polygon fill="#374151" points="76.2077,537.0797,80.2077,547.0797,84.2077,537.0797,80.2077,541.0797" style="stroke:#374151;stroke-width:1;stroke-linejoin:miter;stroke-miterlimit:10;"/><line style="stroke:#374151;stroke-width:1.3;" x1="80.2077" x2="80.2077" y1="599.768" y2="619.768"/><polygon fill="#374151" points="76.2077,609.768,80.2077,619.768,84.2077,609.768,80.2077,613.768" style="stroke:#374151;stroke-width:1;stroke-linejoin:miter;stroke-miterlimit:10;"/><line style="stroke:#374151;stroke-width:1.3;" x1="234.8406" x2="234.8406" y1="513.8208" y2="547.0797"/><polygon fill="#374151" points="230.8406,537.0797,234.8406,547.0797,238.8406,537.0797,234.8406,541.0797" style="stroke:#374151;stroke-width:1;stroke-linejoin:miter;stroke-miterlimit:10;"/><line style="stroke:#374151;stroke-width:1.3;" x1="234.8406" x2="234.8406" y1="599.768" y2="619.768"/><polygon fill="#374151" points="230.8406,609.768,234.8406,619.768,238.8406,609.768,234.8406,613.768" style="stroke:#374151;stroke-width:1;stroke-linejoin:miter;stroke-miterlimit:10;"/><line style="stroke:#374151;stroke-width:1.3;" x1="417.4561" x2="417.4561" y1="513.8208" y2="547.0797"/><polygon fill="#374151" points="413.4561,537.0797,417.4561,547.0797,421.4561,537.0797,417.4561,541.0797" style="stroke:#374151;stroke-width:1;stroke-linejoin:miter;stroke-miterlimit:10;"/><line style="stroke:#374151;stroke-width:1.3;" x1="417.4561" x2="417.4561" y1="583.4239" y2="619.768"/><polygon fill="#374151" points="413.4561,609.768,417.4561,619.768,421.4561,609.768,417.4561,613.768" style="stroke:#374151;stroke-width:1;stroke-linejoin:miter;stroke-miterlimit:10;"/><line style="stroke:#374151;stroke-width:1.3;" x1="135.4154" x2="184.6434" y1="501.8208" y2="501.8208"/><polygon fill="#374151" points="174.6434,497.8208,184.6434,501.8208,174.6434,505.8208,178.6434,501.8208" style="stroke:#374151;stroke-width:1;stroke-linejoin:miter;stroke-miterlimit:10;"/><line style="stroke:#374151;stroke-width:1.3;" x1="285.0378" x2="336.9431" y1="501.8208" y2="501.8208"/><polygon fill="#374151" points="326.9431,497.8208,336.9431,501.8208,326.9431,505.8208,330.9431,501.8208" style="stroke:#374151;stroke-width:1;stroke-linejoin:miter;stroke-miterlimit:10;"/><line style="stroke:#374151;stroke-width:1.3;" x1="329.8777" x2="329.8777" y1="449.8208" y2="474.8208"/><line style="stroke:#374151;stroke-width:1.3;" x1="329.8777" x2="80.2077" y1="474.8208" y2="474.8208"/><line style="stroke:#374151;stroke-width:1.3;" x1="80.2077" x2="80.2077" y1="474.8208" y2="489.8208"/><polygon fill="#374151" points="76.2077,479.8208,80.2077,489.8208,84.2077,479.8208,80.2077,483.8208" style="stroke:#374151;stroke-width:1;stroke-linejoin:miter;stroke-miterlimit:10;"/><line style="stroke:#374151;stroke-width:1.3;" x1="497.9692" x2="585.0236" y1="501.8208" y2="501.8208"/><line style="stroke:#374151;stroke-width:1.3;" x1="585.0236" x2="585.0236" y1="501.8208" y2="550.7609"/><polygon fill="#374151" points="581.0236,540.7609,585.0236,550.7609,589.0236,540.7609,585.0236,544.7609" style="stroke:#374151;stroke-width:1;stroke-linejoin:miter;stroke-miterlimit:10;"/><line style="stroke:#374151;stroke-width:1.3;" x1="585.0236" x2="585.0236" y1="587.105" y2="619.768"/><polygon fill="#374151" points="581.0236,609.768,585.0236,619.768,589.0236,609.768,585.0236,613.768" style="stroke:#374151;stroke-width:1;stroke-linejoin:miter;stroke-miterlimit:10;"/><line style="stroke:#374151;stroke-width:1.3;" x1="80.2077" x2="585.0236" y1="619.768" y2="619.768"/><line style="stroke:#374151;stroke-width:1.3;" x1="329.8777" x2="329.8777" y1="248.1003" y2="268.1003"/><polygon fill="#374151" points="325.8777,258.1003,329.8777,268.1003,333.8777,258.1003,329.8777,262.1003" style="stroke:#374151;stroke-width:1;stroke-linejoin:miter;stroke-miterlimit:10;"/><line style="stroke:#374151;stroke-width:1.3;" x1="397.3283" x2="664.078" y1="651.768" y2="651.768"/><polygon fill="#374151" points="660.078,469.8208,664.078,459.8208,668.078,469.8208,664.078,465.8208" style="stroke:#374151;stroke-width:1.3;stroke-linejoin:miter;stroke-miterlimit:10;"/><line style="stroke:#374151;stroke-width:1.3;" x1="664.078" x2="664.078" y1="236.1003" y2="651.768"/><line style="stroke:#374151;stroke-width:1.3;" x1="664.078" x2="341.8777" y1="236.1003" y2="236.1003"/><polygon fill="#374151" points="351.8777,232.1003,341.8777,236.1003,351.8777,240.1003,347.8777,236.1003" style="stroke:#374151;stroke-width:1;stroke-linejoin:miter;stroke-miterlimit:10;"/><line style="stroke:#374151;stroke-width:1.3;" x1="329.8777" x2="329.8777" y1="619.768" y2="639.768"/><polygon fill="#374151" points="325.8777,629.768,329.8777,639.768,333.8777,629.768,329.8777,633.768" style="stroke:#374151;stroke-width:1;stroke-linejoin:miter;stroke-miterlimit:10;"/><line style="stroke:#374151;stroke-width:1.3;" x1="329.8777" x2="329.8777" y1="204.1003" y2="224.1003"/><polygon fill="#374151" points="325.8777,214.1003,329.8777,224.1003,333.8777,214.1003,329.8777,218.1003" style="stroke:#374151;stroke-width:1;stroke-linejoin:miter;stroke-miterlimit:10;"/><line style="stroke:#374151;stroke-width:1.3;" x1="329.8777" x2="329.8777" y1="663.768" y2="683.768"/><polygon fill="#374151" points="325.8777,673.768,329.8777,683.768,333.8777,673.768,329.8777,677.768" style="stroke:#374151;stroke-width:1;stroke-linejoin:miter;stroke-miterlimit:10;"/><line style="stroke:#374151;stroke-width:1.3;" x1="329.8777" x2="329.8777" y1="720.1121" y2="740.1121"/><polygon fill="#374151" points="325.8777,730.1121,329.8777,740.1121,333.8777,730.1121,329.8777,734.1121" style="stroke:#374151;stroke-width:1;stroke-linejoin:miter;stroke-miterlimit:10;"/><?plantuml-src RLF1Rjim3BtxAmZiaW3B03SRiYM7OksIOS0636kFkJ0I4nEM9KEYaph3_dsKcwvUKVX6FZw-zoWBYoFu4euao0w-uxc76qeost1C0ki7YMY4WuTD35wOOb6acdsB4HlOeQaFCNJUtWON8hpPhFCtGgGARJYnFy0UNQ9HvtECuNGPco_Ubn_AbytxYatjAIKetyr7pIpeoDB3xmBW9aHByS9JRgu-pHTQtQZMfrfPVhnQ57zKjs2KOldDip0wFXCOXygkTQ5LiRmZib0Hjd1YgU1CCSmY-XeCUijMGLk_Lqf2Km7DVB0w5Qab55sv_1bQs6bqpt3OzLi_EH4VAdaBzA32eQP-kihmh-GfPb3gZ56J8IR5mwvhMerhwuDNVHKx2uC6540GRcWOlWrD6nA1MkSZ3lUHI4EFzp0nlT6hvklCo1xeUWfIaOT9Jscg42NuWL5z3J3JoMhhDTvMKPoUvMSsqgDbnaSJeEqSook4zv6on0IHzfsGLSgQg1sxmwC-CTov_uZ_fGBebCBsG0sB4hoouovhj5thsEJWdXndAfZuS46jTNuS30ir0qnjxI_tWfCcgqF3jIiScKwwLrq-Rbt-8kcYr__3qyHevew4yelK4oO9xLy0?></g></svg>