<svg xmlns="http://www.w3.org/2000/svg" xmlns:xlink="http://www.w3.org/1999/xlink" contentStyleType="text/css" data-diagram-type="DESCRIPTION" height="1568px" preserveAspectRatio="none" style="width:839px;height:1568px;background:#FEFEFE;" version="1.1" viewBox="0 0 839 1568" width="839px" zoomAndPan="magnify"><?plantuml $version$?><defs/><g><rect fill="#FEFEFE" height="1568" style="stroke:none;stroke-width:1;" width="839" x="0" y="0"/><g class="title" data-source-line="1"><text fill="#000000" font-family="sans-serif" font-size="14" font-weight="700" lengthAdjust="spacing" textLength="219.8691" x="306.4282" y="24.9659">Correctness Dependency Graph</text></g><!--entity Inventory--><g class="entity" data-qualified-name="Inventory" data-source-line="11" id="ent0001"><rect fill="#DBEAFE" height="58.1358" rx="2.5" ry="2.5" style="stroke:#1F2937;stroke-width:0.5;" width="151.4735" x="493.84" y="47.0679"/><text fill="#111827" font-family="sans-serif" font-size="14" lengthAdjust="spacing" textLength="131.4735" x="503.84" y="72.0339">Language inventory</text><text fill="#111827" font-family="sans-serif" font-size="14" lengthAdjust="spacing" textLength="89.0957" x="503.84" y="91.1018">and coverage</text></g><!--entity EK--><g class="entity" data-qualified-name="EK" data-source-line="12" id="ent0002"><rect fill="#BBF7D0" height="58.1358" rx="2.5" ry="2.5" style="stroke:#1F2937;stroke-width:0.5;" width="81.8378" x="465.66" y="165.1979"/><text fill="#111827" font-family="sans-serif" font-size="14" lengthAdjust="spacing" textLength="61.8378" x="475.66" y="190.1639">Exact-key</text><text fill="#111827" font-family="sans-serif" font-size="14" lengthAdjust="spacing" textLength="49.6298" x="475.66" y="209.2318">identity</text></g><!--entity DS--><g class="entity" data-qualified-name="DS" data-source-line="13" id="ent0003"><rect fill="#DCFCE7" height="58.1358" rx="2.5" ry="2.5" style="stroke:#1F2937;stroke-width:0.5;" width="145.1595" x="7" y="283.3379"/><text fill="#111827" font-family="sans-serif" font-size="14" lengthAdjust="spacing" textLength="125.1595" x="17" y="308.3039">Dovetail saturation</text><text fill="#111827" font-family="sans-serif" font-size="14" lengthAdjust="spacing" textLength="71.0497" x="17" y="327.3718">soundness</text></g><!--entity DC--><g class="entity" data-qualified-name="DC" data-source-line="14" id="ent0004"><rect fill="#DCFCE7" height="58.1358" rx="2.5" ry="2.5" style="stroke:#1F2937;stroke-width:0.5;" width="145.1595" x="560" y="283.3379"/><text fill="#111827" font-family="sans-serif" font-size="14" lengthAdjust="spacing" textLength="125.1595" x="570" y="308.3039">Dovetail saturation</text><text fill="#111827" font-family="sans-serif" font-size="14" lengthAdjust="spacing" textLength="91.3076" x="570" y="327.3718">completeness</text></g><!--entity EH--><g class="entity" data-qualified-name="EH" data-source-line="15" id="ent0005"><rect fill="#CCFBF1" height="58.1358" rx="2.5" ry="2.5" style="stroke:#1F2937;stroke-width:0.5;" width="146.2375" x="364.46" y="401.4679"/><text fill="#111827" font-family="sans-serif" font-size="14" lengthAdjust="spacing" textLength="126.2375" x="374.46" y="426.4339">Checked extraction</text><text fill="#111827" font-family="sans-serif" font-size="14" lengthAdjust="spacing" textLength="52.5698" x="374.46" y="445.5018">honesty</text></g><!--entity RS--><g class="entity" data-qualified-name="RS" data-source-line="16" id="ent0006"><rect fill="#FEF3C7" height="58.1358" rx="2.5" ry="2.5" style="stroke:#1F2937;stroke-width:0.5;" width="130.6976" x="309.23" y="519.6079"/><text fill="#111827" font-family="sans-serif" font-size="14" lengthAdjust="spacing" textLength="110.6976" x="319.23" y="544.5739">RhoNet lowering</text><text fill="#111827" font-family="sans-serif" font-size="14" lengthAdjust="spacing" textLength="71.0497" x="319.23" y="563.6418">soundness</text></g><!--entity RC--><g class="entity" data-qualified-name="RC" data-source-line="17" id="ent0007"><rect fill="#FEF3C7" height="58.1358" rx="2.5" ry="2.5" style="stroke:#1F2937;stroke-width:0.5;" width="130.6976" x="498.23" y="519.6079"/><text fill="#111827" font-family="sans-serif" font-size="14" lengthAdjust="spacing" textLength="110.6976" x="508.23" y="544.5739">RhoNet lowering</text><text fill="#111827" font-family="sans-serif" font-size="14" lengthAdjust="spacing" textLength="91.3076" x="508.23" y="563.6418">completeness</text></g><!--entity AE--><g class="entity" data-qualified-name="AE" data-source-line="18" id="ent0008"><rect fill="#FDE68A" height="58.1358" rx="2.5" ry="2.5" style="stroke:#1F2937;stroke-width:0.5;" width="94.8017" x="428.18" y="637.7479"/><text fill="#111827" font-family="sans-serif" font-size="14" lengthAdjust="spacing" textLength="74.8017" x="438.18" y="662.7139">AST artifact</text><text fill="#111827" font-family="sans-serif" font-size="14" lengthAdjust="spacing" textLength="64.8898" x="438.18" y="681.7818">exactness</text></g><!--entity GA--><g class="entity" data-qualified-name="GA" data-source-line="19" id="ent0009"><rect fill="#FDE68A" height="39.0679" rx="2.5" ry="2.5" style="stroke:#1F2937;stroke-width:0.5;" width="125.3356" x="203.91" y="411.0079"/><text fill="#111827" font-family="sans-serif" font-size="14" lengthAdjust="spacing" textLength="105.3356" x="213.91" y="435.9739">Guard atomicity</text></g><!--entity COMM--><g class="entity" data-qualified-name="COMM" data-source-line="20" id="ent0010"><rect fill="#FBCFE8" height="58.1358" rx="2.5" ry="2.5" style="stroke:#1F2937;stroke-width:0.5;" width="116.2916" x="192.43" y="755.8779"/><text fill="#111827" font-family="sans-serif" font-size="14" lengthAdjust="spacing" textLength="96.2916" x="202.43" y="780.8439">RSpace COMM</text><text fill="#111827" font-family="sans-serif" font-size="14" lengthAdjust="spacing" textLength="66.2897" x="202.43" y="799.9118">semantics</text></g><!--entity PI--><g class="entity" data-qualified-name="PI" data-source-line="21" id="ent0011"><rect fill="#FBCFE8" height="58.1358" rx="2.5" ry="2.5" style="stroke:#1F2937;stroke-width:0.5;" width="155.0575" x="33.05" y="874.0179"/><text fill="#111827" font-family="sans-serif" font-size="14" lengthAdjust="spacing" textLength="135.0575" x="43.05" y="898.9839">Parallel permutation</text><text fill="#111827" font-family="sans-serif" font-size="14" lengthAdjust="spacing" textLength="93.7016" x="43.05" y="918.0518">independence</text></g><!--entity OC--><g class="entity" data-qualified-name="OC" data-source-line="22" id="ent0012"><rect fill="#EDE9FE" height="58.1358" rx="2.5" ry="2.5" style="stroke:#1F2937;stroke-width:0.5;" width="100.6817" x="45.24" y="992.1479"/><text fill="#111827" font-family="sans-serif" font-size="14" lengthAdjust="spacing" textLength="80.6817" x="55.24" y="1017.1139">Observation</text><text fill="#111827" font-family="sans-serif" font-size="14" lengthAdjust="spacing" textLength="76.3837" x="55.24" y="1036.1818">correctness</text></g><!--entity RJ--><g class="entity" data-qualified-name="RJ" data-source-line="23" id="ent0013"><rect fill="#FFEDD5" height="58.1358" rx="2.5" ry="2.5" style="stroke:#1F2937;stroke-width:0.5;" width="138.2856" x="687.44" y="401.4679"/><text fill="#111827" font-family="sans-serif" font-size="14" lengthAdjust="spacing" textLength="86.8416" x="697.44" y="426.4339">Rejected-rule</text><text fill="#111827" font-family="sans-serif" font-size="14" lengthAdjust="spacing" textLength="118.2856" x="697.44" y="445.5018">coverage contract</text></g><!--entity HR--><g class="entity" data-qualified-name="HR" data-source-line="24" id="ent0014"><rect fill="#F3E8FF" height="58.1358" rx="2.5" ry="2.5" style="stroke:#1F2937;stroke-width:0.5;" width="141.0575" x="181.05" y="992.1479"/><text fill="#111827" font-family="sans-serif" font-size="14" lengthAdjust="spacing" textLength="121.0575" x="191.05" y="1017.1139">Host Rho-machine</text><text fill="#111827" font-family="sans-serif" font-size="14" lengthAdjust="spacing" textLength="104.3416" x="191.05" y="1036.1818">reuse boundary</text></g><!--entity FG--><g class="entity" data-qualified-name="FG" data-source-line="25" id="ent0015"><rect fill="#DDD6FE" height="58.1358" rx="2.5" ry="2.5" style="stroke:#1F2937;stroke-width:0.5;" width="113.7296" x="256.71" y="1228.4179"/><text fill="#111827" font-family="sans-serif" font-size="14" lengthAdjust="spacing" textLength="56.1538" x="266.71" y="1253.3839">Flip gate</text><text fill="#111827" font-family="sans-serif" font-size="14" lengthAdjust="spacing" textLength="93.7296" x="266.71" y="1272.4518">checked gates</text></g><!--entity SP--><g class="entity" data-qualified-name="SP" data-source-line="26" id="ent0016"><rect fill="#FCE7F3" height="58.1358" rx="2.5" ry="2.5" style="stroke:#1F2937;stroke-width:0.5;" width="139.5315" x="243.81" y="1110.2879"/><text fill="#111827" font-family="sans-serif" font-size="14" lengthAdjust="spacing" textLength="119.5315" x="253.81" y="1135.2539">Backend semantic</text><text fill="#111827" font-family="sans-serif" font-size="14" lengthAdjust="spacing" textLength="83.4257" x="253.81" y="1154.3218">preservation</text></g><!--link Inventory to EK--><g class="link" data-entity-1="ent0001" data-entity-2="ent0002" data-link-type="dependency" data-source-line="28" id="lnk17"><path d="M554.17,105.5379 C544.41,123.5379 534.2031,142.3324 524.4331,160.3524" fill="none" id="Inventory-to-EK" style="stroke:#374151;stroke-width:1;"/><polygon fill="#374151" points="522.05,164.7479,529.8561,158.7425,524.4331,160.3524,522.8232,154.9295,522.05,164.7479" style="stroke:#374151;stroke-width:1;stroke-linejoin:miter;stroke-miterlimit:10;"/></g><!--link Inventory to DS--><g class="link" data-entity-1="ent0001" data-entity-2="ent0003" data-link-type="dependency" data-source-line="29" id="lnk18"><path d="M509.99,105.6279 C415.74,150.6779 237.8709,235.7211 143.6509,280.7711" fill="none" id="Inventory-to-DS" style="stroke:#374151;stroke-width:1;"/><polygon fill="#374151" points="139.14,282.9279,148.9851,282.6544,143.6509,280.7711,145.5341,275.4369,139.14,282.9279" style="stroke:#374151;stroke-width:1;stroke-linejoin:miter;stroke-miterlimit:10;"/></g><!--link Inventory to DC--><g class="link" data-entity-1="ent0001" data-entity-2="ent0004" data-link-type="dependency" data-source-line="30" id="lnk19"><path d="M577.18,105.3879 C589.29,150.4179 611.5321,233.1293 623.6521,278.2193" fill="none" id="Inventory-to-DC" style="stroke:#374151;stroke-width:1;"/><polygon fill="#374151" points="624.95,283.0479,626.4766,273.3181,623.6521,278.2193,618.7509,275.3948,624.95,283.0479" style="stroke:#374151;stroke-width:1;stroke-linejoin:miter;stroke-miterlimit:10;"/></g><!--link Inventory to RJ--><g class="link" data-entity-1="ent0001" data-entity-2="ent0013" data-link-type="dependency" data-source-line="31" id="lnk20"><path d="M596.59,105.3779 C631.03,142.9779 690,212.9379 722.58,283.3379 C740.47,322.0079 748.7095,365.9631 752.8095,396.2631" fill="none" id="Inventory-to-RJ" style="stroke:#374151;stroke-width:1;"/><polygon fill="#374151" points="753.48,401.2179,756.2371,391.7628,752.8095,396.2631,748.3093,392.8356,753.48,401.2179" style="stroke:#374151;stroke-width:1;stroke-linejoin:miter;stroke-miterlimit:10;"/></g><!--link EK to DS--><g class="link" data-entity-1="ent0002" data-entity-2="ent0003" data-link-type="dependency" data-source-line="32" id="lnk21"><path d="M465.25,206.2479 C403.17,222.7779 282.19,255.1179 179.58,283.3379 C170.8,285.7479 166.4067,286.9664 157.2867,289.5064" fill="none" id="EK-to-DS" style="stroke:#374151;stroke-width:1;"/><polygon fill="#374151" points="152.47,290.8479,162.2132,292.2866,157.2867,289.5064,160.0668,284.5799,152.47,290.8479" style="stroke:#374151;stroke-width:1;stroke-linejoin:miter;stroke-miterlimit:10;"/></g><!--link EK to DC--><g class="link" data-entity-1="ent0002" data-entity-2="ent0004" data-link-type="dependency" data-source-line="33" id="lnk22"><path d="M537.4,223.6779 C556.93,241.6779 578.4135,261.4792 597.9635,279.4992" fill="none" id="EK-to-DC" style="stroke:#374151;stroke-width:1;"/><polygon fill="#374151" points="601.64,282.8879,597.7334,273.847,597.9635,279.4992,592.3114,279.7294,601.64,282.8879" style="stroke:#374151;stroke-width:1;stroke-linejoin:miter;stroke-miterlimit:10;"/></g><!--link DS to EH--><g class="link" data-entity-1="ent0003" data-entity-2="ent0005" data-link-type="dependency" data-source-line="34" id="lnk23"><path d="M152.46,337.0479 C214.2,357.0779 297.5438,384.1156 359.4338,404.1856" fill="none" id="DS-to-EH" style="stroke:#374151;stroke-width:1;"/><polygon fill="#374151" points="364.19,405.7279,356.8628,399.1467,359.4338,404.1856,354.395,406.7566,364.19,405.7279" style="stroke:#374151;stroke-width:1;stroke-linejoin:miter;stroke-miterlimit:10;"/></g><!--link DC to EH--><g class="link" data-entity-1="ent0004" data-entity-2="ent0005" data-link-type="dependency" data-source-line="35" id="lnk24"><path d="M584.88,341.8179 C554.66,359.8079 520.0156,380.439 489.7656,398.459" fill="none" id="DC-to-EH" style="stroke:#374151;stroke-width:1;"/><polygon fill="#374151" points="485.47,401.0179,495.2492,399.8484,489.7656,398.459,491.1549,392.9754,485.47,401.0179" style="stroke:#374151;stroke-width:1;stroke-linejoin:miter;stroke-miterlimit:10;"/></g><!--link DS to RS--><g class="link" data-entity-1="ent0003" data-entity-2="ent0006" data-link-type="dependency" data-source-line="36" id="lnk25"><path d="M80.92,341.9479 C83.95,374.5179 93.67,427.4279 124.58,459.6079 C173.2,510.2179 247.6751,530.9736 303.9351,540.1436" fill="none" id="DS-to-RS" style="stroke:#374151;stroke-width:1;"/><polygon fill="#374151" points="308.87,540.9479,300.6307,535.5522,303.9351,540.1436,299.3437,543.448,308.87,540.9479" style="stroke:#374151;stroke-width:1;stroke-linejoin:miter;stroke-miterlimit:10;"/></g><!--link DC to RC--><g class="link" data-entity-1="ent0004" data-entity-2="ent0007" data-link-type="dependency" data-source-line="37" id="lnk26"><path d="M624.26,341.7079 C615.61,371.1579 601.66,418.6179 589.58,459.6079 C583.72,479.4879 578.5266,497.0928 573.4366,514.3228" fill="none" id="DC-to-RC" style="stroke:#374151;stroke-width:1;"/><polygon fill="#374151" points="572.02,519.1179,578.4059,511.6199,573.4366,514.3228,570.7337,509.3534,572.02,519.1179" style="stroke:#374151;stroke-width:1;stroke-linejoin:miter;stroke-miterlimit:10;"/></g><!--link EK to RS--><g class="link" data-entity-1="ent0002" data-entity-2="ent0006" data-link-type="dependency" data-source-line="38" id="lnk27"><path d="M465.44,207.4279 C393.46,231.1979 246.61,291.3679 186.58,401.4679 C174.21,424.1579 172.72,437.8079 186.58,459.6079 C213.36,501.7279 261.3639,522.7506 304.2239,534.3606" fill="none" id="EK-to-RS" style="stroke:#374151;stroke-width:1;"/><polygon fill="#374151" points="309.05,535.6679,301.4089,529.4539,304.2239,534.3606,299.3172,537.1756,309.05,535.6679" style="stroke:#374151;stroke-width:1;stroke-linejoin:miter;stroke-miterlimit:10;"/></g><!--link EK to RC--><g class="link" data-entity-1="ent0002" data-entity-2="ent0007" data-link-type="dependency" data-source-line="39" id="lnk28"><path d="M511.2,223.8079 C521.9,290.0079 547.5318,448.442 558.2018,514.422" fill="none" id="EK-to-RC" style="stroke:#374151;stroke-width:1;"/><polygon fill="#374151" points="559,519.3579,561.5119,509.8348,558.2018,514.422,553.6145,511.1119,559,519.3579" style="stroke:#374151;stroke-width:1;stroke-linejoin:miter;stroke-miterlimit:10;"/></g><!--link EH to RS--><g class="link" data-entity-1="ent0005" data-entity-2="ent0006" data-link-type="dependency" data-source-line="40" id="lnk29"><path d="M422.17,459.9479 C412.41,477.9479 402.2031,496.7424 392.4331,514.7624" fill="none" id="EH-to-RS" style="stroke:#374151;stroke-width:1;"/><polygon fill="#374151" points="390.05,519.1579,397.8561,513.1525,392.4331,514.7624,390.8232,509.3395,390.05,519.1579" style="stroke:#374151;stroke-width:1;stroke-linejoin:miter;stroke-miterlimit:10;"/></g><!--link EH to RC--><g class="link" data-entity-1="ent0005" data-entity-2="ent0007" data-link-type="dependency" data-source-line="41" id="lnk30"><path d="M468.4,459.9479 C487.93,477.9479 509.4135,497.7492 528.9635,515.7692" fill="none" id="EH-to-RC" style="stroke:#374151;stroke-width:1;"/><polygon fill="#374151" points="532.64,519.1579,528.7334,510.117,528.9635,515.7692,523.3114,515.9994,532.64,519.1579" style="stroke:#374151;stroke-width:1;stroke-linejoin:miter;stroke-miterlimit:10;"/></g><!--link GA to RS--><g class="link" data-entity-1="ent0009" data-entity-2="ent0006" data-link-type="dependency" data-source-line="42" id="lnk31"><path d="M284.17,450.4579 C301.51,469.0979 324.806,494.1455 344.696,515.5455" fill="none" id="GA-to-RS" style="stroke:#374151;stroke-width:1;"/><polygon fill="#374151" points="348.1,519.2079,344.9028,509.8925,344.696,515.5455,339.043,515.3388,348.1,519.2079" style="stroke:#374151;stroke-width:1;stroke-linejoin:miter;stroke-miterlimit:10;"/></g><!--link GA to RC--><g class="link" data-entity-1="ent0009" data-entity-2="ent0007" data-link-type="dependency" data-source-line="43" id="lnk32"><path d="M314.96,450.4579 C364.68,469.8979 437.7832,498.4873 493.0832,520.1073" fill="none" id="GA-to-RC" style="stroke:#374151;stroke-width:1;"/><polygon fill="#374151" points="497.74,521.9279,490.8143,514.9254,493.0832,520.1073,487.9014,522.3762,497.74,521.9279" style="stroke:#374151;stroke-width:1;stroke-linejoin:miter;stroke-miterlimit:10;"/></g><!--link RJ to RC--><g class="link" data-entity-1="ent0013" data-entity-2="ent0007" data-link-type="dependency" data-source-line="44" id="lnk33"><path d="M709.37,459.9479 C679.46,477.9479 645.2043,498.5602 615.2543,516.5802" fill="none" id="RJ-to-RC" style="stroke:#374151;stroke-width:1;"/><polygon fill="#374151" points="610.97,519.1579,620.7439,517.9454,615.2543,516.5802,616.6196,511.0905,610.97,519.1579" style="stroke:#374151;stroke-width:1;stroke-linejoin:miter;stroke-miterlimit:10;"/></g><!--link RS to AE--><g class="link" data-entity-1="ent0006" data-entity-2="ent0008" data-link-type="dependency" data-source-line="45" id="lnk34"><path d="M399.29,578.0879 C414.94,596.0779 431.828,615.5058 447.498,633.5158" fill="none" id="RS-to-AE" style="stroke:#374151;stroke-width:1;"/><polygon fill="#374151" points="450.78,637.2879,447.8901,627.8726,447.498,633.5158,441.8548,633.1238,450.78,637.2879" style="stroke:#374151;stroke-width:1;stroke-linejoin:miter;stroke-miterlimit:10;"/></g><!--link RC to AE--><g class="link" data-entity-1="ent0007" data-entity-2="ent0008" data-link-type="dependency" data-source-line="46" id="lnk35"><path d="M542.05,578.0879 C528.42,596.0779 513.8601,615.2931 500.2101,633.3031" fill="none" id="RC-to-AE" style="stroke:#374151;stroke-width:1;"/><polygon fill="#374151" points="497.19,637.2879,505.8141,632.5314,500.2101,633.3031,499.4384,627.6991,497.19,637.2879" style="stroke:#374151;stroke-width:1;stroke-linejoin:miter;stroke-miterlimit:10;"/></g><!--link AE to COMM--><g class="link" data-entity-1="ent0008" data-entity-2="ent0010" data-link-type="dependency" data-source-line="47" id="lnk36"><path d="M427.86,692.4379 C392.13,710.8879 347.613,733.8646 310.203,753.1746" fill="none" id="AE-to-COMM" style="stroke:#374151;stroke-width:1;"/><polygon fill="#374151" points="305.76,755.4679,315.5921,754.8943,310.203,753.1746,311.9228,747.7854,305.76,755.4679" style="stroke:#374151;stroke-width:1;stroke-linejoin:miter;stroke-miterlimit:10;"/></g><!--link GA to COMM--><g class="link" data-entity-1="ent0009" data-entity-2="ent0010" data-link-type="dependency" data-source-line="48" id="lnk37"><path d="M265.72,450.4879 C263.07,508.8179 255.257,680.9431 252.097,750.4831" fill="none" id="GA-to-COMM" style="stroke:#374151;stroke-width:1;"/><polygon fill="#374151" points="251.87,755.4779,256.2744,746.6688,252.097,750.4831,248.2827,746.3056,251.87,755.4779" style="stroke:#374151;stroke-width:1;stroke-linejoin:miter;stroke-miterlimit:10;"/></g><!--link COMM to PI--><g class="link" data-entity-1="ent0010" data-entity-2="ent0011" data-link-type="dependency" data-source-line="49" id="lnk38"><path d="M216.33,814.3579 C194.64,832.3579 170.5281,852.3554 148.8081,870.3754" fill="none" id="COMM-to-PI" style="stroke:#374151;stroke-width:1;"/><polygon fill="#374151" points="144.96,873.5679,154.4406,870.8998,148.8081,870.3754,149.3325,864.7429,144.96,873.5679" style="stroke:#374151;stroke-width:1;stroke-linejoin:miter;stroke-miterlimit:10;"/></g><!--link PI to OC--><g class="link" data-entity-1="ent0011" data-entity-2="ent0012" data-link-type="dependency" data-source-line="50" id="lnk39"><path d="M106.91,932.4879 C104.59,950.4879 102.2312,968.7192 99.9012,986.7392" fill="none" id="PI-to-OC" style="stroke:#374151;stroke-width:1;"/><polygon fill="#374151" points="99.26,991.6979,104.3811,983.2852,99.9012,986.7392,96.4471,982.2593,99.26,991.6979" style="stroke:#374151;stroke-width:1;stroke-linejoin:miter;stroke-miterlimit:10;"/></g><!--link COMM to OC--><g class="link" data-entity-1="ent0010" data-entity-2="ent0012" data-link-type="dependency" data-source-line="51" id="lnk40"><path d="M246.9,814.4979 C241.79,845.6479 230.22,895.9179 205.58,932.1479 C189.42,955.9179 169.0185,973.5639 147.2385,988.7839" fill="none" id="COMM-to-OC" style="stroke:#374151;stroke-width:1;"/><polygon fill="#374151" points="143.14,991.6479,152.8084,989.7714,147.2385,988.7839,148.226,983.2139,143.14,991.6479" style="stroke:#374151;stroke-width:1;stroke-linejoin:miter;stroke-miterlimit:10;"/></g><!--link RS to SP--><g class="link" data-entity-1="ent0006" data-entity-2="ent0016" data-link-type="dependency" data-source-line="52" id="lnk41"><path d="M374.78,578.1679 C375.07,622.2679 375.58,709.7179 375.58,783.9479 C375.58,783.9479 375.58,783.9479 375.58,904.0779 C375.58,980.6579 346.1662,1062.1439 328.0562,1105.5239" fill="none" id="RS-to-SP" style="stroke:#374151;stroke-width:1;"/><polygon fill="#374151" points="326.13,1110.1379,333.2885,1103.3736,328.0562,1105.5239,325.906,1100.2916,326.13,1110.1379" style="stroke:#374151;stroke-width:1;stroke-linejoin:miter;stroke-miterlimit:10;"/></g><!--link RC to SP--><g class="link" data-entity-1="ent0007" data-entity-2="ent0016" data-link-type="dependency" data-source-line="53" id="lnk42"><path d="M565.98,578.1379 C569.48,622.2079 575.58,709.6179 575.58,783.9479 C575.58,783.9479 575.58,783.9479 575.58,904.0779 C575.58,1007.2079 465.9571,1074.2105 388.3471,1109.2505" fill="none" id="RC-to-SP" style="stroke:#374151;stroke-width:1;"/><polygon fill="#374151" points="383.79,1111.3079,393.6387,1111.2501,388.3471,1109.2505,390.3467,1103.9588,383.79,1111.3079" style="stroke:#374151;stroke-width:1;stroke-linejoin:miter;stroke-miterlimit:10;"/></g><!--link OC to SP--><g class="link" data-entity-1="ent0012" data-entity-2="ent0016" data-link-type="dependency" data-source-line="54" id="lnk43"><path d="M146.42,1049.2979 C180.51,1067.4679 220.9372,1088.997 255.5872,1107.457" fill="none" id="OC-to-SP" style="stroke:#374151;stroke-width:1;"/><polygon fill="#374151" points="260,1109.8079,253.9377,1102.0459,255.5872,1107.457,250.1762,1109.1065,260,1109.8079" style="stroke:#374151;stroke-width:1;stroke-linejoin:miter;stroke-miterlimit:10;"/></g><!--link HR to SP--><g class="link" data-entity-1="ent0014" data-entity-2="ent0016" data-link-type="dependency" data-source-line="55" id="lnk44"><path d="M266.75,1050.6279 C276.35,1068.6279 286.3872,1087.4061 295.9972,1105.4261" fill="none" id="HR-to-SP" style="stroke:#374151;stroke-width:1;"/><polygon fill="#374151" points="298.35,1109.8379,297.6444,1100.0144,295.9972,1105.4261,290.5855,1103.7789,298.35,1109.8379" style="stroke:#374151;stroke-width:1;stroke-linejoin:miter;stroke-miterlimit:10;"/></g><!--link RJ to FG--><g class="link" data-entity-1="ent0013" data-entity-2="ent0015" data-link-type="dependency" data-source-line="56" id="lnk45"><path d="M748.98,459.7879 C737.89,503.5679 718.58,590.6179 718.58,665.8079 C718.58,665.8079 718.58,665.8079 718.58,1022.2179 C718.58,1181.0179 487.3387,1233.1934 375.6987,1249.3134" fill="none" id="RJ-to-FG" style="stroke:#374151;stroke-width:1;"/><polygon fill="#374151" points="370.75,1250.0279,380.2293,1252.7007,375.6987,1249.3134,379.086,1244.7828,370.75,1250.0279" style="stroke:#374151;stroke-width:1;stroke-linejoin:miter;stroke-miterlimit:10;"/></g><!--link OC to FG--><g class="link" data-entity-1="ent0012" data-entity-2="ent0015" data-link-type="dependency" data-source-line="57" id="lnk46"><path d="M120.29,1050.6179 C146.34,1080.3479 188.75,1128.2079 226.58,1168.4179 C245.73,1188.7679 264.3203,1207.6365 281.4703,1224.7465" fill="none" id="OC-to-FG" style="stroke:#374151;stroke-width:1;"/><polygon fill="#374151" points="285.01,1228.2779,281.4637,1219.0897,281.4703,1224.7465,275.8135,1224.7531,285.01,1228.2779" style="stroke:#374151;stroke-width:1;stroke-linejoin:miter;stroke-miterlimit:10;"/></g><!--link SP to FG--><g class="link" data-entity-1="ent0016" data-entity-2="ent0015" data-link-type="dependency" data-source-line="58" id="lnk47"><path d="M313.58,1168.7679 C313.58,1186.7579 313.58,1204.9579 313.58,1222.9679" fill="none" id="SP-to-FG" style="stroke:#374151;stroke-width:1;"/><polygon fill="#374151" points="313.58,1227.9679,317.58,1218.9679,313.58,1222.9679,309.58,1218.9679,313.58,1227.9679" style="stroke:#374151;stroke-width:1;stroke-linejoin:miter;stroke-miterlimit:10;"/></g><g class="legend" data-source-line="60"><rect fill="none" height="242.815" rx="7.5" ry="7.5" style="stroke:#000000;stroke-width:1;" width="412.8484" x="407.8771" y="1306.5538"/><text fill="#000000" font-family="sans-serif" font-size="14" font-weight="700" lengthAdjust="spacing" textLength="32.6899" x="416.5171" y="1328.5197">Area</text><text fill="#000000" font-family="sans-serif" font-size="14" font-weight="700" lengthAdjust="spacing" textLength="61.1798" x="508.4968" y="1328.5197">Meaning</text><rect fill="#DBEAFE" height="19.0679" style="stroke:none;stroke-width:1;" width="91.9796" x="412.8771" y="1332.6217"/><text fill="#000000" font-family="sans-serif" font-size="14" lengthAdjust="spacing" textLength="63.5038" x="416.5171" y="1347.5876">Inventory</text><text fill="#000000" font-family="sans-serif" font-size="14" lengthAdjust="spacing" textLength="170.6453" x="508.4968" y="1347.5876">language coverage inputs</text><rect fill="#DCFCE7" height="19.0679" style="stroke:none;stroke-width:1;" width="91.9796" x="412.8771" y="1351.6896"/><text fill="#000000" font-family="sans-serif" font-size="14" lengthAdjust="spacing" textLength="53.8298" x="416.5171" y="1366.6555">Dovetail</text><text fill="#000000" font-family="sans-serif" font-size="14" lengthAdjust="spacing" textLength="226.1832" x="508.4968" y="1366.6555">saturation facts and completeness</text><rect fill="#BBF7D0" height="19.0679" style="stroke:none;stroke-width:1;" width="91.9796" x="412.8771" y="1370.7575"/><text fill="#000000" font-family="sans-serif" font-size="14" lengthAdjust="spacing" textLength="50.7638" x="416.5171" y="1385.7234">Identity</text><text fill="#000000" font-family="sans-serif" font-size="14" lengthAdjust="spacing" textLength="149.0154" x="508.4968" y="1385.7234">exact-key preservation</text><rect fill="#CCFBF1" height="19.0679" style="stroke:none;stroke-width:1;" width="91.9796" x="412.8771" y="1389.8254"/><text fill="#000000" font-family="sans-serif" font-size="14" lengthAdjust="spacing" textLength="66.3878" x="416.5171" y="1404.7914">Extraction</text><text fill="#000000" font-family="sans-serif" font-size="14" lengthAdjust="spacing" textLength="243.3891" x="508.4968" y="1404.7914">honest complete or bounded reports</text><rect fill="#FEF3C7" height="19.0679" style="stroke:none;stroke-width:1;" width="91.9796" x="412.8771" y="1408.8933"/><text fill="#000000" font-family="sans-serif" font-size="14" lengthAdjust="spacing" textLength="61.3618" x="416.5171" y="1423.8593">Lowering</text><text fill="#000000" font-family="sans-serif" font-size="14" lengthAdjust="spacing" textLength="129.4435" x="508.4968" y="1423.8593">RhoNet correctness</text><rect fill="#FDE68A" height="19.0679" style="stroke:none;stroke-width:1;" width="91.9796" x="412.8771" y="1427.9613"/><text fill="#000000" font-family="sans-serif" font-size="14" lengthAdjust="spacing" textLength="84.6997" x="416.5171" y="1442.9272">Guards / AST</text><text fill="#000000" font-family="sans-serif" font-size="14" lengthAdjust="spacing" textLength="219.0712" x="508.4968" y="1442.9272">atomic guards and exact artifacts</text><rect fill="#FBCFE8" height="19.0679" style="stroke:none;stroke-width:1;" width="91.9796" x="412.8771" y="1447.0292"/><text fill="#000000" font-family="sans-serif" font-size="14" lengthAdjust="spacing" textLength="47.4738" x="416.5171" y="1461.9951">RSpace</text><text fill="#000000" font-family="sans-serif" font-size="14" lengthAdjust="spacing" textLength="303.5888" x="508.4968" y="1461.9951">COMM semantics and schedule independence</text><rect fill="#EDE9FE" height="19.0679" style="stroke:none;stroke-width:1;" width="91.9796" x="412.8771" y="1466.0971"/><text fill="#000000" font-family="sans-serif" font-size="14" lengthAdjust="spacing" textLength="42.7978" x="416.5171" y="1481.063">Oracle</text><text fill="#000000" font-family="sans-serif" font-size="14" lengthAdjust="spacing" textLength="158.2414" x="508.4968" y="1481.063">observation correctness</text><rect fill="#F3E8FF" height="19.0679" style="stroke:none;stroke-width:1;" width="91.9796" x="412.8771" y="1485.165"/><text fill="#000000" font-family="sans-serif" font-size="14" lengthAdjust="spacing" textLength="30.6039" x="416.5171" y="1500.1309">Host</text><text fill="#000000" font-family="sans-serif" font-size="14" lengthAdjust="spacing" textLength="194.7952" x="508.4968" y="1500.1309">Rho-machine reuse boundary</text><rect fill="#DDD6FE" height="19.0679" style="stroke:none;stroke-width:1;" width="91.9796" x="412.8771" y="1504.2329"/><text fill="#000000" font-family="sans-serif" font-size="14" lengthAdjust="spacing" textLength="30.9959" x="416.5171" y="1519.1989">Gate</text><text fill="#000000" font-family="sans-serif" font-size="14" lengthAdjust="spacing" textLength="204.4552" x="508.4968" y="1519.1989">auditable runtime flip evidence</text><rect fill="#FCE7F3" height="19.0679" style="stroke:none;stroke-width:1;" width="91.9796" x="412.8771" y="1523.3008"/><text fill="#000000" font-family="sans-serif" font-size="14" lengthAdjust="spacing" textLength="59.5698" x="416.5171" y="1538.2668">Theorem</text><text fill="#000000" font-family="sans-serif" font-size="14" lengthAdjust="spacing" textLength="206.1072" x="508.4968" y="1538.2668">backend semantic preservation</text><line style="stroke:#000000;stroke-width:1;" x1="412.8771" x2="815.7256" y1="1313.5538" y2="1313.5538"/><line style="stroke:#000000;stroke-width:1;" x1="412.8771" x2="815.7256" y1="1332.6217" y2="1332.6217"/><line style="stroke:#000000;stroke-width:1;" x1="412.8771" x2="815.7256" y1="1351.6896" y2="1351.6896"/><line style="stroke:#000000;stroke-width:1;" x1="412.8771" x2="815.7256" y1="1370.7575" y2="1370.7575"/><line style="stroke:#000000;stroke-width:1;" x1="412.8771" x2="815.7256" y1="1389.8254" y2="1389.8254"/><line style="stroke:#000000;stroke-width:1;" x1="412.8771" x2="815.7256" y1="1408.8933" y2="1408.8933"/><line style="stroke:#000000;stroke-width:1;" x1="412.8771" x2="815.7256" y1="1427.9613" y2="1427.9613"/><line style="stroke:#000000;stroke-width:1;" x1="412.8771" x2="815.7256" y1="1447.0292" y2="1447.0292"/><line style="stroke:#000000;stroke-width:1;" x1="412.8771" x2="815.7256" y1="1466.0971" y2="1466.0971"/><line style="stroke:#000000;stroke-width:1;" x1="412.8771" x2="815.7256" y1="1485.165" y2="1485.165"/><line style="stroke:#000000;stroke-width:1;" x1="412.8771" x2="815.7256" y1="1504.2329" y2="1504.2329"/><line style="stroke:#000000;stroke-width:1;" x1="412.8771" x2="815.7256" y1="1523.3008" y2="1523.3008"/><line style="stroke:#000000;stroke-width:1;" x1="412.8771" x2="815.7256" y1="1542.3688" y2="1542.3688"/><line style="stroke:#000000;stroke-width:1;" x1="412.8771" x2="412.8771" y1="1313.5538" y2="1542.3688"/><line style="stroke:#000000;stroke-width:1;" x1="504.8568" x2="504.8568" y1="1313.5538" y2="1542.3688"/><line style="stroke:#000000;stroke-width:1;" x1="815.7256" x2="815.7256" y1="1313.5538" y2="1542.3688"/></g><?plantuml-src XLJ1Rjiu4BtpAmRDsTXrtTOfi6l0fYGxtQOsv1vpeQM9hOrC2XILD5ZlltT8YZBZDRRmmQCX7pcSUU-PojG8N6cDXP7Ojf1WWx94MRp2Kelcm5ZxLCb6Q764dIYUzbfrikIgLXfkijJ-eXtjGPJgfP9xU1HrYz6AlK38FTts3mDOA5sYxayPP-y_JwQKpPGq8JSUtxwVid-Z4-PQgvT-UJBzCFuuPknywhklzD-9FK8bdr4QfLyVf90b5EePDUNVWMZXBgp1JR98vrHxT4BwGnHcz8G4hAW3fZAl3fJ-1JUBHJPDVezt9tIk4LKDhJ2T5gPIya6sjZcsZmwOREaQdl5q-ajWeOvDZGRFM7uDomzOF649-CDeAjP13uf0eTGLt72UBR9nZCeFwXiQgDKBQfhDPPdvraromgV_2_fFYJc_XfjlluFGfdga-XuasfuEY7bAY2JzT3kF4SjEw1A4KSUg23rVpg_jpBUDA8Ylw_jxUWGU1Gsfy4VR744MF4jlOyY6k5FNM4E3-jYPljqLKRpdkIV6vkuQUBrhKJyF8nfKuY1hUdwQf9_VaYZ7l-a3ov7kQhGWppwYeNGZyvtxGhTbQP9yZA4hrHgWje-EeZXKaj0QknPXPwSbj6_CAYVe9BtDiXYQrLK3Us7iZJr5x9SlD5iIbPBaqzj25oHcwW24DZx8HkFmN0VSRkWkOc0sOUoidD5eHfAuI2JRomI_IEHV60cftniYpaWZxi0L8yQ7oEVoRSZbF23o0Mjpgo6t2ZaYJfyB4MVKxX3va-Sfotc8Y9GsiWGA61SxHjclpHqZUjXepS_PzN3QTXDEesWzH3IfiEhlpvPXbIBgRH-n6lTs4BhQ7mmx_Kb6XmBe_nw5j5PwOgS_UhkQHGvsWZfOti0oyihEj3t2kGSrEVZDAN8SiF9imHlaMTSUwSsExkfTa90Ol15YblZjtd1eSeCf4S2xqd0ua6ix7XCpDJPAXogzWSpWQ-yp1EsT9z9RlzNvmGoSNxJm6rYhEVN60NkVjIzonGuc5D1EtPOPpaDEtZ464t70biHJacuXzWSFzqgdiTCJQmjNPs-uKgfJw0oSf4-ngE6jfljHENNIoqYpzaLTMHcnesjqHyKT4Hwjll6vYWhomfp1zmCgZKU2xIuKVJagMlDK-ma0?></g></svg>