<svg xmlns="http://www.w3.org/2000/svg" xmlns:xlink="http://www.w3.org/1999/xlink" contentStyleType="text/css" data-diagram-type="ACTIVITY" height="765px" preserveAspectRatio="none" style="width:999px;height:765px;background:#FEFEFE;" version="1.1" viewBox="0 0 999 765" width="999px" zoomAndPan="magnify"><?plantuml $version$?><defs/><g><rect fill="#FEFEFE" height="765" style="stroke:none;stroke-width:1;" width="999" x="0" y="0"/><g class="title" data-source-line="14"><text fill="#000000" font-family="monospace" font-size="14" font-weight="700" lengthAdjust="spacing" textLength="764.3967" x="116.7017" y="34.9659">Figure&#160;19-5&#160;&#8212;&#160;C1&#160;depth&#160;increment:&#160;(lam.lam.1)&#160;c&#160;~&gt;&#160;lam.c&#160;&#160;(reduced&#160;via&#160;&#160;subst(0,&#160;c,&#160;lam.1))</text></g><ellipse cx="453.1982" cy="65.0679" fill="#222222" rx="10" ry="10" style="stroke:#222222;stroke-width:1;"/><path d="M684.8,85.0679 L684.8,112.6269 L664.8,116.6269 L684.8,120.6269 L684.8,148.186 A0,0 0 0 0 684.8,148.186 L978.8001,148.186 A0,0 0 0 0 978.8001,148.186 L978.8001,95.0679 L968.8001,85.0679 L684.8,85.0679 A0,0 0 0 0 684.8,85.0679" fill="#FCF3D0" style="stroke:#181818;stroke-width:0.5;"/><path d="M968.8001,85.0679 L968.8001,95.0679 L978.8001,95.0679 L968.8001,85.0679" fill="#FCF3D0" style="stroke:#181818;stroke-width:0.5;"/><text fill="#000000" font-family="monospace" font-size="13" lengthAdjust="spacing" textLength="187.2001" x="690.8" y="103.9649">subject&#160;&#160;(lam.&#160;lam.&#160;1)&#160;c</text><text fill="#000000" font-family="monospace" font-size="13" lengthAdjust="spacing" textLength="218.4001" x="690.8" y="121.6709">fires&#160;to&#160;&#160;subst(0,&#160;c,&#160;lam.1)</text><text fill="#000000" font-family="monospace" font-size="13" lengthAdjust="spacing" textLength="273.0001" x="690.8" y="139.377">where&#160;&#160;lam.1&#160;=&#160;^lambda(^bound(S&#160;Z))</text><rect fill="#F1F1F1" height="36.3441" rx="12.5" ry="12.5" style="stroke:#4A5568;stroke-width:0.5;" width="423.2036" x="241.5965" y="98.4549"/><text fill="#1A202C" font-family="monospace" font-size="12" lengthAdjust="spacing" textLength="403.2036" x="251.5965" y="121.283">beta&#160;seed&#160;&#160;^subst(Z,&#160;^free&#160;c,&#160;^lambda(^bound(S&#160;Z)),&#160;OUT)</text><rect fill="#F1F1F1" height="36.3441" rx="12.5" ry="12.5" style="stroke:#4A5568;stroke-width:0.5;" width="243.2018" x="331.5973" y="168.186"/><text fill="#1A202C" font-family="monospace" font-size="12" lengthAdjust="spacing" textLength="223.2018" x="341.5973" y="191.0141">match&#160;the&#160;^lambda&#160;arm&#160;of&#160;^subst</text><line style="stroke:#4A5568;stroke-width:1.5;" x1="219.1992" x2="670.3974" y1="224.5301" y2="224.5301"/><rect fill="#E6F4EA" height="452.1326" style="stroke:#000000;stroke-width:1.5;" width="406.3983" x="16" y="236.1321"/><path d="M412.3983,236.1321 L412.3983,248.2 L402.3983,258.2 L16,258.2" fill="none" style="stroke:#000000;stroke-width:1.5;"/><text fill="#000000" font-family="monospace" font-size="14" lengthAdjust="spacing" textLength="386.3983" x="19" y="252.098">C1&#160;as-built:&#160;depth&#160;INCREMENTS&#160;under&#160;the&#160;binder</text><rect fill="#F1F1F1" height="36.3441" rx="12.5" ry="12.5" style="stroke:#4A5568;stroke-width:0.5;" width="178.4013" x="129.9985" y="275.2"/><text fill="#1A202C" font-family="monospace" font-size="12" lengthAdjust="spacing" textLength="158.4013" x="139.9985" y="298.0281">j&#160;:=&#160;S&#160;j&#160;&#160;&#160;&#160;&#160;&#160;(0&#160;-&gt;&#160;1)</text><rect fill="#F1F1F1" height="36.3441" rx="12.5" ry="12.5" style="stroke:#4A5568;stroke-width:0.5;" width="272.002" x="83.1981" y="346.5441"/><text fill="#1A202C" font-family="monospace" font-size="12" lengthAdjust="spacing" textLength="252.002" x="93.1981" y="369.3722">body&#160;^bound(S&#160;Z):&#160;&#160;^cmp(1,&#160;1)&#160;=&#160;^Eq</text><rect fill="#F1F1F1" height="36.3441" rx="12.5" ry="12.5" style="stroke:#4A5568;stroke-width:0.5;" width="221.6016" x="108.3983" y="417.8882"/><text fill="#1A202C" font-family="monospace" font-size="12" lengthAdjust="spacing" textLength="201.6016" x="118.3983" y="440.7163">Eq&#160;arm:&#160;&#160;^shiftk(1,&#160;^free&#160;c)</text><rect fill="#F1F1F1" height="36.3441" rx="12.5" ry="12.5" style="stroke:#4A5568;stroke-width:0.5;" width="293.6022" x="72.398" y="489.2323"/><text fill="#1A202C" font-family="monospace" font-size="12" lengthAdjust="spacing" textLength="273.6022" x="82.398" y="512.0604">^free&#160;c&#160;inert&#160;under&#160;shift&#160;&#160;-&gt;&#160;&#160;^free&#160;c</text><rect fill="#F1F1F1" height="36.3441" rx="12.5" ry="12.5" style="stroke:#4A5568;stroke-width:0.5;" width="228.8017" x="104.7983" y="560.5764"/><text fill="#1A202C" font-family="monospace" font-size="12" lengthAdjust="spacing" textLength="208.8017" x="114.7983" y="583.4045">NF&#160;=&#160;^lambda(^free&#160;c)&#160;=&#160;lam.c</text><rect fill="#F1F1F1" height="36.3441" rx="12.5" ry="12.5" style="stroke:#4A5568;stroke-width:0.5;" width="178.4013" x="129.9985" y="631.9206"/><text fill="#1A202C" font-family="monospace" font-size="12" font-weight="700" lengthAdjust="spacing" textLength="158.4013" x="139.9985" y="654.7486">CORRECT&#160;&#8212;&#160;c&#160;stays&#160;free</text><ellipse cx="219.1992" cy="734.2647" fill="none" rx="11" ry="11" style="stroke:#222222;stroke-width:1;"/><ellipse cx="219.1992" cy="734.2647" fill="#222222" rx="6" ry="6" style="stroke:#222222;stroke-width:1;"/><rect fill="#FDEDEC" height="380.7885" style="stroke:#000000;stroke-width:1.5;" width="439.9982" x="450.3983" y="271.8041"/><path d="M880.3965,271.8041 L880.3965,283.872 L870.3965,293.872 L450.3983,293.872" fill="none" style="stroke:#000000;stroke-width:1.5;"/><text fill="#000000" font-family="monospace" font-size="14" lengthAdjust="spacing" textLength="419.9982" x="453.3983" y="287.7701">counterfactual:&#160;depth&#160;NOT&#160;incremented&#160;(the&#160;C1&#160;bug)</text><rect fill="#F1F1F1" height="36.3441" rx="12.5" ry="12.5" style="stroke:#4A5568;stroke-width:0.5;" width="84.8005" x="627.9971" y="310.872"/><text fill="#1A202C" font-family="monospace" font-size="12" lengthAdjust="spacing" textLength="64.8005" x="637.9971" y="333.7001">j&#160;stays&#160;0</text><rect fill="#F1F1F1" height="36.3441" rx="12.5" ry="12.5" style="stroke:#4A5568;stroke-width:0.5;" width="272.002" x="534.3964" y="382.2162"/><text fill="#1A202C" font-family="monospace" font-size="12" lengthAdjust="spacing" textLength="252.002" x="544.3964" y="405.0442">body&#160;^bound(S&#160;Z):&#160;&#160;^cmp(1,&#160;0)&#160;=&#160;^Gt</text><rect fill="#F1F1F1" height="36.3441" rx="12.5" ry="12.5" style="stroke:#4A5568;stroke-width:0.5;" width="272.002" x="534.3964" y="453.5603"/><text fill="#1A202C" font-family="monospace" font-size="12" lengthAdjust="spacing" textLength="252.002" x="544.3964" y="476.3884">Gt&#160;arm:&#160;&#160;^pred(1)&#160;=&#160;0&#160;&#160;-&gt;&#160;&#160;^bound&#160;Z</text><rect fill="#F1F1F1" height="36.3441" rx="12.5" ry="12.5" style="stroke:#4A5568;stroke-width:0.5;" width="236.0017" x="552.3965" y="524.9044"/><text fill="#1A202C" font-family="monospace" font-size="12" lengthAdjust="spacing" textLength="216.0017" x="562.3965" y="547.7325">NF&#160;=&#160;^lambda(^bound&#160;Z)&#160;=&#160;lam.0</text><rect fill="#F1F1F1" height="36.3441" rx="12.5" ry="12.5" style="stroke:#4A5568;stroke-width:0.5;" width="286.4022" x="527.1963" y="596.2485"/><text fill="#1A202C" font-family="monospace" font-size="12" font-weight="700" lengthAdjust="spacing" textLength="266.4022" x="537.1963" y="619.0766">WRONG&#160;&#8212;&#160;c&#160;CAPTURED&#160;(lam.0&#160;=&#160;identity)</text><ellipse cx="670.3974" cy="698.5926" fill="none" rx="11" ry="11" style="stroke:#222222;stroke-width:1;"/><ellipse cx="670.3974" cy="698.5926" fill="#222222" rx="6" ry="6" style="stroke:#222222;stroke-width:1;"/><line style="stroke:#4A5568;stroke-width:1;" x1="453.1982" x2="453.1982" y1="75.0679" y2="98.4549"/><polygon fill="#4A5568" points="449.1982,88.4549,453.1982,98.4549,457.1982,88.4549,453.1982,92.4549" style="stroke:#4A5568;stroke-width:1;stroke-linejoin:miter;stroke-miterlimit:10;"/><line style="stroke:#4A5568;stroke-width:1;" x1="453.1982" x2="453.1982" y1="134.799" y2="168.186"/><polygon fill="#4A5568" points="449.1982,158.186,453.1982,168.186,457.1982,158.186,453.1982,162.186" style="stroke:#4A5568;stroke-width:1;stroke-linejoin:miter;stroke-miterlimit:10;"/><line style="stroke:#4A5568;stroke-width:1;" x1="219.1992" x2="219.1992" y1="311.5441" y2="346.5441"/><polygon fill="#4A5568" points="215.1992,336.5441,219.1992,346.5441,223.1992,336.5441,219.1992,340.5441" style="stroke:#4A5568;stroke-width:1;stroke-linejoin:miter;stroke-miterlimit:10;"/><line style="stroke:#4A5568;stroke-width:1;" x1="219.1992" x2="219.1992" y1="382.8882" y2="417.8882"/><polygon fill="#4A5568" points="215.1992,407.8882,219.1992,417.8882,223.1992,407.8882,219.1992,411.8882" style="stroke:#4A5568;stroke-width:1;stroke-linejoin:miter;stroke-miterlimit:10;"/><line style="stroke:#4A5568;stroke-width:1;" x1="219.1992" x2="219.1992" y1="454.2323" y2="489.2323"/><polygon fill="#4A5568" points="215.1992,479.2323,219.1992,489.2323,223.1992,479.2323,219.1992,483.2323" style="stroke:#4A5568;stroke-width:1;stroke-linejoin:miter;stroke-miterlimit:10;"/><line style="stroke:#4A5568;stroke-width:1;" x1="219.1992" x2="219.1992" y1="525.5764" y2="560.5764"/><polygon fill="#4A5568" points="215.1992,550.5764,219.1992,560.5764,223.1992,550.5764,219.1992,554.5764" style="stroke:#4A5568;stroke-width:1;stroke-linejoin:miter;stroke-miterlimit:10;"/><line style="stroke:#4A5568;stroke-width:1;" x1="219.1992" x2="219.1992" y1="596.9206" y2="631.9206"/><polygon fill="#4A5568" points="215.1992,621.9206,219.1992,631.9206,223.1992,621.9206,219.1992,625.9206" style="stroke:#4A5568;stroke-width:1;stroke-linejoin:miter;stroke-miterlimit:10;"/><line style="stroke:#4A5568;stroke-width:1;" x1="219.1992" x2="219.1992" y1="668.2647" y2="723.2647"/><polygon fill="#4A5568" points="215.1992,713.2647,219.1992,723.2647,223.1992,713.2647,219.1992,717.2647" style="stroke:#4A5568;stroke-width:1;stroke-linejoin:miter;stroke-miterlimit:10;"/><line style="stroke:#4A5568;stroke-width:1;" x1="670.3974" x2="670.3974" y1="347.2162" y2="382.2162"/><polygon fill="#4A5568" points="666.3974,372.2162,670.3974,382.2162,674.3974,372.2162,670.3974,376.2162" style="stroke:#4A5568;stroke-width:1;stroke-linejoin:miter;stroke-miterlimit:10;"/><line style="stroke:#4A5568;stroke-width:1;" x1="670.3974" x2="670.3974" y1="418.5603" y2="453.5603"/><polygon fill="#4A5568" points="666.3974,443.5603,670.3974,453.5603,674.3974,443.5603,670.3974,447.5603" style="stroke:#4A5568;stroke-width:1;stroke-linejoin:miter;stroke-miterlimit:10;"/><line style="stroke:#4A5568;stroke-width:1;" x1="670.3974" x2="670.3974" y1="489.9044" y2="524.9044"/><polygon fill="#4A5568" points="666.3974,514.9044,670.3974,524.9044,674.3974,514.9044,670.3974,518.9044" style="stroke:#4A5568;stroke-width:1;stroke-linejoin:miter;stroke-miterlimit:10;"/><line style="stroke:#4A5568;stroke-width:1;" x1="670.3974" x2="670.3974" y1="561.2485" y2="596.2485"/><polygon fill="#4A5568" points="666.3974,586.2485,670.3974,596.2485,674.3974,586.2485,670.3974,590.2485" style="stroke:#4A5568;stroke-width:1;stroke-linejoin:miter;stroke-miterlimit:10;"/><line style="stroke:#4A5568;stroke-width:1;" x1="670.3974" x2="670.3974" y1="632.5926" y2="687.5926"/><polygon fill="#4A5568" points="666.3974,677.5926,670.3974,687.5926,674.3974,677.5926,670.3974,681.5926" style="stroke:#4A5568;stroke-width:1;stroke-linejoin:miter;stroke-miterlimit:10;"/><line style="stroke:#2F855A;stroke-width:1;" x1="219.1992" x2="219.1992" y1="226.0301" y2="275.2"/><polygon fill="#2F855A" points="215.1992,265.2,219.1992,275.2,223.1992,265.2,219.1992,269.2" style="stroke:#2F855A;stroke-width:1;stroke-linejoin:miter;stroke-miterlimit:10;"/><line style="stroke:#C0392B;stroke-width:1;" x1="670.3974" x2="670.3974" y1="226.0301" y2="310.872"/><polygon fill="#C0392B" points="666.3974,300.872,670.3974,310.872,674.3974,300.872,670.3974,304.872" style="stroke:#C0392B;stroke-width:1;stroke-linejoin:miter;stroke-miterlimit:10;"/><line style="stroke:#4A5568;stroke-width:1;" x1="453.1982" x2="453.1982" y1="204.5301" y2="224.5301"/><polygon fill="#4A5568" points="449.1982,214.5301,453.1982,224.5301,457.1982,214.5301,453.1982,218.5301" style="stroke:#4A5568;stroke-width:1;stroke-linejoin:miter;stroke-miterlimit:10;"/><?plantuml-src XPJHRjem58RlynH7wqKJ2Rf0IzM65ec6fDh5OA9KapgjafEOn6qIfuvJXgPEUuWzuPvanuufQ6KQ20NRlttE-Sxl74B8qaPGw9rt1nx8Z8BVWuHMCkkoCg7VOCLaIUiQx9mKH-hNSo267oDG_-CZME0MKdUZXkKIxkicgl61Qr52h4CWee0FKtyUV0ocYnjzlfOmsKZ6opOIs0_WNS8DF3ZGO501128LNGnL-8mt4dSI2QoC1IregOOKJryAYi55skYv65QyoHE8ACIaabXLqe6KFRCorO4_psVJQy3P9fOwUnTiDSyItCtasZcowaTMLaIG0Y8IFwQ2Ope-pxc0Wp1Gtnr5GfUaoMN8Ipab1OM2bxokI4oJ7L6TaOIlL0PBajTqPuN44bEJQ_Xk0LnnWTMQI2VZmU3q36VLqMQkD-wxVH_dnaBmrT_22ICOFTbtoejbOMqvtUqp_FxvwxNDMwZUFteCO6jeD85dHg1jeErs8Ev0AtOigvP4ICkBg2HGKvGQBzXt7RZNVKAryOLz7ocmzWtSEKu7PhSBPsYLN58GBCqailR3uubhwL0F5BlLPgQZWSeDbvPCq1eatvSFBgyoYjMsOxZS6zcYPG8ghEKLHCQPDeaHQkFofIbYQDLLpYGUs_roq0_F1eFnr-veY6Fi9U9LJdw7G3Vtm3DeTvpV-bf5Q9tz3Ww2q_0a6El-0tYRAm3wOxlG7M6fmtOnuiaQTdBt46zSL7Qlet1WUS6JKGPFAdMrNcTiAH-LnF3V76Q6s7Wgf4bCYq75tAYDU1hkqZC7uPHsXj5SH2D_Dfy7_a8xAmOqmxhMj_FYVQGvlQXcIbwr886aX9KjJjyzFkzVlSKPOx6IYYNUauRa6wBJsM9hM7IPRTvOKPCwY3IS19F0to9j4t7_Jz7L5A-bKLxB3SKAhMzhngx1e_V3tLu-Pcq3oDq2Qby-BHv__6bnEmychQjT5B--WjxmKXxLpFu0?></g></svg>