<svg xmlns="http://www.w3.org/2000/svg" xmlns:xlink="http://www.w3.org/1999/xlink" contentStyleType="text/css" data-diagram-type="DESCRIPTION" height="440px" preserveAspectRatio="none" style="width:2510px;height:440px;background:#FEFEFE;" version="1.1" viewBox="0 0 2510 440" width="2510px" zoomAndPan="magnify"><?plantuml $version$?><defs/><g><rect fill="#FEFEFE" height="440" style="stroke:none;stroke-width:1;" width="2510" x="0" y="0"/><g class="title" data-source-line="14"><text fill="#000000" font-family="monospace" font-size="14" font-weight="700" lengthAdjust="spacing" textLength="688.797" x="907.3013" y="24.9659">Figure&#160;19-4&#160;&#8212;&#160;FV&#160;discharge:&#160;SN&#160;+&#160;CR&#160;&#160;=&gt;&#160;&#160;unique&#160;NF&#160;=&#160;b[a/0]&#160;&#160;=&gt;&#160;&#160;weak&#160;bisimulation</text><text fill="#000000" font-family="monospace" font-size="14" font-weight="700" lengthAdjust="spacing" textLength="587.9974" x="957.7011" y="44.0339">(every&#160;node:&#160;"Closed&#160;under&#160;the&#160;global&#160;context"&#160;&#8212;&#160;no&#160;axioms,&#160;no&#160;admits)</text></g><!--cluster BinderReflectionTotalOrReject.v  (reflection is total + injective)--><g class="cluster" data-qualified-name="BinderReflectionTotalOrReject.v  .reflection is total . injective." data-source-line="16" id="ent0001"><path d="M8.5,191.7378 L563.8976,191.7378 A3.75,3.75 0 0 1 566.3976,194.2378 L573.3976,216.8057 L573.5,216.8057 A2.5,2.5 0 0 1 576,219.3057 L576,295.2378 A2.5,2.5 0 0 1 573.5,297.7378 L8.5,297.7378 A2.5,2.5 0 0 1 6,295.2378 L6,194.2378 A2.5,2.5 0 0 1 8.5,191.7378" fill="#E8F0FE" style="stroke:#000000;stroke-width:1.5;"/><line style="stroke:#000000;stroke-width:1.5;" x1="6" x2="573.3976" y1="216.8057" y2="216.8057"/><text fill="#000000" font-family="monospace" font-size="14" font-weight="700" lengthAdjust="spacing" textLength="554.3976" x="10" y="208.7038">BinderReflectionTotalOrReject.v&#160;&#160;(reflection&#160;is&#160;total&#160;+&#160;injective)</text></g><!--cluster DeBruijnSubstTRS.v  (the TRS core)--><g class="cluster" data-qualified-name="DeBruijnSubstTRS.v  .the TRS core." data-source-line="20" id="ent0003"><path d="M606.5,65.7378 L893.0988,65.7378 A3.75,3.75 0 0 1 895.5988,68.2378 L902.5988,90.8057 L1409.9,90.8057 A2.5,2.5 0 0 1 1412.4,93.3057 L1412.4,421.2378 A2.5,2.5 0 0 1 1409.9,423.7378 L606.5,423.7378 A2.5,2.5 0 0 1 604,421.2378 L604,68.2378 A2.5,2.5 0 0 1 606.5,65.7378" fill="#EDE7F6" style="stroke:#000000;stroke-width:1.5;"/><line style="stroke:#000000;stroke-width:1.5;" x1="604" x2="902.5988" y1="90.8057" y2="90.8057"/><text fill="#000000" font-family="monospace" font-size="14" font-weight="700" lengthAdjust="spacing" textLength="285.5988" x="608" y="82.7038">DeBruijnSubstTRS.v&#160;&#160;(the&#160;TRS&#160;core)</text></g><!--cluster InRhoBetaCascadeWeakBisim.v  (reduction bisimulation)--><g class="cluster" data-qualified-name="InRhoBetaCascadeWeakBisim.v  .reduction bisimulation." data-source-line="30" id="ent0011"><path d="M1442.9,200.7378 L1889.0981,200.7378 A3.75,3.75 0 0 1 1891.5981,203.2378 L1898.5981,225.8057 L2352.4,225.8057 A2.5,2.5 0 0 1 2354.9,228.3057 L2354.9,310.2378 A2.5,2.5 0 0 1 2352.4,312.7378 L1442.9,312.7378 A2.5,2.5 0 0 1 1440.4,310.2378 L1440.4,203.2378 A2.5,2.5 0 0 1 1442.9,200.7378" fill="#E6F4EA" style="stroke:#000000;stroke-width:1.5;"/><line style="stroke:#000000;stroke-width:1.5;" x1="1440.4" x2="1898.5981" y1="225.8057" y2="225.8057"/><text fill="#000000" font-family="monospace" font-size="14" font-weight="700" lengthAdjust="spacing" textLength="445.1981" x="1444.4" y="217.7038">InRhoBetaCascadeWeakBisim.v&#160;&#160;(reduction&#160;bisimulation)</text></g><!--entity REFINJ--><g class="entity" data-qualified-name="BinderReflectionTotalOrReject.v  .reflection is total . injective..REFINJ" data-source-line="17" id="ent0002"><rect fill="#C3DAF7" height="52.6879" rx="2.5" ry="2.5" style="stroke:#4A5568;stroke-width:0.5;" width="146" x="217.5" y="229.3978"/><text fill="#1A202C" font-family="monospace" font-size="14" lengthAdjust="spacing" textLength="100.7996" x="227.5" y="254.3638">mreflect_inj</text><text fill="#1A202C" font-family="monospace" font-size="10" lengthAdjust="spacing" textLength="126" x="227.5" y="269.1557">+&#160;collision-free&#160;tags</text></g><!--entity ORTH--><g class="entity" data-qualified-name="DeBruijnSubstTRS.v  .the TRS core..ORTH" data-source-line="21" id="ent0004"><rect fill="#D6C6EE" height="90.8237" rx="2.5" ry="2.5" style="stroke:#4A5568;stroke-width:0.5;" width="263.5989" x="624.2" y="210.3278"/><text fill="#1A202C" font-family="monospace" font-size="14" lengthAdjust="spacing" textLength="193.1992" x="634.2" y="235.2938">head_step_deterministic</text><text fill="#1A202C" font-family="monospace" font-size="14" lengthAdjust="spacing" textLength="184.7992" x="634.2" y="254.3617">object_binder_disjoint</text><text fill="#1A202C" font-family="monospace" font-size="14" lengthAdjust="spacing" textLength="243.5989" x="634.2" y="273.4296">reserved_disjoint_from_object</text><text fill="#1A202C" font-family="monospace" font-size="10" lengthAdjust="spacing" textLength="96" x="634.2" y="288.2216">C2&#160;orthogonality</text></g><!--entity NORM--><g class="entity" data-qualified-name="DeBruijnSubstTRS.v  .the TRS core..NORM" data-source-line="22" id="ent0005"><rect fill="#D6C6EE" height="71.7558" rx="2.5" ry="2.5" style="stroke:#4A5568;stroke-width:0.5;" width="179.5993" x="666.2" y="335.8578"/><text fill="#1A202C" font-family="monospace" font-size="14" lengthAdjust="spacing" textLength="159.5993" x="676.2" y="360.8238">step_preserves_norm</text><text fill="#1A202C" font-family="monospace" font-size="14" lengthAdjust="spacing" textLength="142.7994" x="676.2" y="379.8917">+&#160;reduces_to_norm</text><text fill="#1A202C" font-family="monospace" font-size="10" lengthAdjust="spacing" textLength="114" x="676.2" y="394.6836">normalizing&#160;interp.</text></g><!--entity MU--><g class="entity" data-qualified-name="DeBruijnSubstTRS.v  .the TRS core..MU" data-source-line="23" id="ent0006"><rect fill="#D6C6EE" height="71.7558" rx="2.5" ry="2.5" style="stroke:#4A5568;stroke-width:0.5;" width="271.9989" x="620" y="103.8578"/><text fill="#1A202C" font-family="monospace" font-size="14" lengthAdjust="spacing" textLength="142.7994" x="630" y="128.8238">step_decreases_mu</text><text fill="#1A202C" font-family="monospace" font-size="10" lengthAdjust="spacing" textLength="114" x="630" y="143.6157">val(k)&#160;measure&#160;mu&#160;=</text><text fill="#1A202C" font-family="monospace" font-size="14" lengthAdjust="spacing" textLength="251.9989" x="630" y="161.5117">(mu&#160;a&#160;+&#160;2)*3^j*4^(mu&#160;t)&lt;/size&gt;</text></g><!--entity CR--><g class="entity" data-qualified-name="DeBruijnSubstTRS.v  .the TRS core..CR" data-source-line="24" id="ent0007"><rect fill="#C6E0F5" height="58.1358" rx="2.5" ry="2.5" style="stroke:#4A5568;stroke-width:0.5;" width="179.5993" x="960.4" y="220.6678"/><text fill="#1A202C" font-family="monospace" font-size="14" font-weight="700" lengthAdjust="spacing" textLength="159.5993" x="970.4" y="245.6338">subst_trs_confluent</text><text fill="#1A202C" font-family="monospace" font-size="14" lengthAdjust="spacing" textLength="33.5999" x="970.4" y="264.7017">(CR)</text></g><!--entity SN--><g class="entity" data-qualified-name="DeBruijnSubstTRS.v  .the TRS core..SN" data-source-line="25" id="ent0008"><rect fill="#C6E0F5" height="58.1358" rx="2.5" ry="2.5" style="stroke:#4A5568;stroke-width:0.5;" width="196.3992" x="952" y="116.6678"/><text fill="#1A202C" font-family="monospace" font-size="14" font-weight="700" lengthAdjust="spacing" textLength="176.3992" x="962" y="141.6338">subst_trs_terminating</text><text fill="#1A202C" font-family="monospace" font-size="14" lengthAdjust="spacing" textLength="151.1993" x="962" y="160.7017">(SN,&#160;well_founded)</text></g><!--entity NF--><g class="entity" data-qualified-name="DeBruijnSubstTRS.v  .the TRS core..NF" data-source-line="26" id="ent0009"><rect fill="#B7E4C7" height="71.7558" rx="2.5" ry="2.5" style="stroke:#4A5568;stroke-width:0.5;" width="171.1993" x="964.6" y="313.8578"/><text fill="#1A202C" font-family="monospace" font-size="14" lengthAdjust="spacing" textLength="151.1993" x="974.6" y="338.8238">subst_normal_form_</text><text fill="#1A202C" font-family="monospace" font-size="14" lengthAdjust="spacing" textLength="134.3994" x="974.6" y="357.8917">is_debruijn_beta</text><text fill="#1A202C" font-family="monospace" font-size="10" lengthAdjust="spacing" textLength="66" x="974.6" y="372.6836">NF&#160;=&#160;b[a/0]</text></g><!--entity UNIQ--><g class="entity" data-qualified-name="DeBruijnSubstTRS.v  .the TRS core..UNIQ" data-source-line="27" id="ent0010"><rect fill="#A7D8B6" height="77.2038" rx="2.5" ry="2.5" style="stroke:#4A5568;stroke-width:0.5;" width="187.9993" x="1208.4" y="215.1378"/><text fill="#1A202C" font-family="monospace" font-size="14" font-weight="700" lengthAdjust="spacing" textLength="159.5993" x="1218.4" y="240.1038">subst_trs_unique_nf</text><text fill="#1A202C" font-family="monospace" font-size="14" lengthAdjust="spacing" textLength="167.9993" x="1218.4" y="259.1717">beta_seed_unique_nf_</text><text fill="#1A202C" font-family="monospace" font-size="14" lengthAdjust="spacing" textLength="134.3994" x="1218.4" y="278.2396">is_debruijn_beta</text></g><!--entity TARGET--><g class="entity" data-qualified-name="InRhoBetaCascadeWeakBisim.v  .reduction bisimulation..TARGET" data-source-line="31" id="ent0012"><rect fill="#C9E7D4" height="58.1358" rx="2.5" ry="2.5" style="stroke:#4A5568;stroke-width:0.5;" width="145.9995" x="1456.4" y="238.6678"/><text fill="#1A202C" font-family="monospace" font-size="14" lengthAdjust="spacing" textLength="125.9995" x="1466.4" y="263.6338">cascade_target_</text><text fill="#1A202C" font-family="monospace" font-size="14" lengthAdjust="spacing" textLength="100.7996" x="1466.4" y="282.7017">well_defined</text></g><!--entity BISIM--><g class="entity" data-qualified-name="InRhoBetaCascadeWeakBisim.v  .reduction bisimulation..BISIM" data-source-line="32" id="ent0013"><rect fill="#9FD3B4" height="58.1358" rx="2.5" ry="2.5" style="stroke:#4A5568;stroke-width:0.5;" width="221.5991" x="1662.4" y="238.6678"/><text fill="#1A202C" font-family="monospace" font-size="14" font-weight="700" lengthAdjust="spacing" textLength="201.5991" x="1672.4" y="263.6338">weak_bisim_beta_cascade_</text><text fill="#1A202C" font-family="monospace" font-size="14" font-weight="700" lengthAdjust="spacing" textLength="134.3994" x="1672.4" y="282.7017">vs_abstract_beta</text></g><!--entity NONVAC--><g class="entity" data-qualified-name="InRhoBetaCascadeWeakBisim.v  .reduction bisimulation..NONVAC" data-source-line="33" id="ent0014"><rect fill="#C9E7D4" height="52.6879" rx="2.5" ry="2.5" style="stroke:#4A5568;stroke-width:0.5;" width="238.399" x="2100.5" y="240.3978"/><text fill="#1A202C" font-family="monospace" font-size="14" lengthAdjust="spacing" textLength="218.399" x="2110.5" y="265.3638">beta_cascade_is_nonvacuous</text><text fill="#1A202C" font-family="monospace" font-size="10" lengthAdjust="spacing" textLength="144" x="2110.5" y="280.1557">witness&#160;takes&#160;REAL&#160;steps</text></g><g class="entity" data-qualified-name="GMN27" data-source-line="50" id="ent0028"><path d="M1944,121.1778 L1944,184.2959 A0,0 0 0 0 1944,184.2959 L2215.7,184.2959 L2219.7,240.0178 L2223.7,184.2959 L2495.3997,184.2959 A0,0 0 0 0 2495.3997,184.2959 L2495.3997,131.1778 L2485.3997,121.1778 L1944,121.1778 A0,0 0 0 0 1944,121.1778" fill="#FCF3D0" style="stroke:#181818;stroke-width:0.5;"/><path d="M2485.3997,121.1778 L2485.3997,131.1778 L2495.3997,131.1778 L2485.3997,121.1778" fill="#FCF3D0" style="stroke:#181818;stroke-width:0.5;"/><text fill="#000000" font-family="monospace" font-size="13" lengthAdjust="spacing" textLength="530.3997" x="1950" y="140.0748">Non-vacuity&#160;closes&#160;the&#160;tau-erasure&#160;trap:&#160;the&#160;witness&#160;(lam.0)(free&#160;A)</text><text fill="#000000" font-family="monospace" font-size="13" lengthAdjust="spacing" textLength="530.3997" x="1950" y="157.7808">takes&#160;&gt;=&#160;1&#160;genuine&#160;step&#160;and&#160;lands&#160;on&#160;^free&#160;A,&#160;so&#160;the&#160;bisimulation&#160;is</text><text fill="#000000" font-family="monospace" font-size="13" lengthAdjust="spacing" textLength="304.2" x="1950" y="175.4869">NOT&#160;satisfied&#160;by&#160;an&#160;inert&#160;tau&#160;backbone.</text></g><!--link REFINJ to ORTH--><g class="link" data-entity-1="ent0002" data-entity-2="ent0004" data-link-type="dependency" data-source-line="36" id="lnk15"><path d="M363.92,255.7378 C433.3,255.7378 534.61,255.7378 618.88,255.7378" fill="none" id="REFINJ-to-ORTH" style="stroke:#4A5568;stroke-width:1;"/><polygon fill="#4A5568" points="623.88,255.7378,614.88,251.7378,618.88,255.7378,614.88,259.7378,623.88,255.7378" style="stroke:#4A5568;stroke-width:1;stroke-linejoin:miter;stroke-miterlimit:10;"/></g><!--link ORTH to CR--><g class="link" data-entity-1="ent0004" data-entity-2="ent0007" data-link-type="dependency" data-source-line="37" id="lnk16"><path d="M888.14,253.0478 C912.42,252.5478 932.2511,252.1415 954.9211,251.6715" fill="none" id="ORTH-to-CR" style="stroke:#4A5568;stroke-width:1;"/><polygon fill="#4A5568" points="959.92,251.5678,950.839,247.7552,954.9211,251.6715,951.0048,255.7535,959.92,251.5678" style="stroke:#4A5568;stroke-width:1;stroke-linejoin:miter;stroke-miterlimit:10;"/></g><!--link NORM to CR--><g class="link" data-entity-1="ent0005" data-entity-2="ent0007" data-link-type="dependency" data-source-line="38" id="lnk17"><path d="M846.16,337.3078 C861.49,331.2278 877.23,324.8778 892,318.7378 C922.27,306.1578 950.9889,293.674 979.0989,281.214" fill="none" id="NORM-to-CR" style="stroke:#4A5568;stroke-width:1;"/><polygon fill="#4A5568" points="983.67,279.1878,973.8211,279.1781,979.0989,281.214,977.063,286.4918,983.67,279.1878" style="stroke:#4A5568;stroke-width:1;stroke-linejoin:miter;stroke-miterlimit:10;"/></g><!--link MU to SN--><g class="link" data-entity-1="ent0006" data-entity-2="ent0008" data-link-type="dependency" data-source-line="39" id="lnk18"><path d="M892.41,142.5178 C912.41,142.9278 927.681,143.2454 946.711,143.6354" fill="none" id="MU-to-SN" style="stroke:#4A5568;stroke-width:1;"/><polygon fill="#4A5568" points="951.71,143.7378,942.7938,139.5542,946.711,143.6354,942.6299,147.5526,951.71,143.7378" style="stroke:#4A5568;stroke-width:1;stroke-linejoin:miter;stroke-miterlimit:10;"/></g><!--link CR to UNIQ--><g class="link" data-entity-1="ent0007" data-entity-2="ent0010" data-link-type="dependency" data-source-line="40" id="lnk19"><path d="M1140.47,251.1678 C1162.36,251.5178 1180.8507,251.8063 1202.9407,252.1663" fill="none" id="CR-to-UNIQ" style="stroke:#4A5568;stroke-width:1;"/><polygon fill="#4A5568" points="1207.94,252.2478,1199.0064,248.1017,1202.9407,252.1663,1198.876,256.1006,1207.94,252.2478" style="stroke:#4A5568;stroke-width:1;stroke-linejoin:miter;stroke-miterlimit:10;"/></g><!--link SN to UNIQ--><g class="link" data-entity-1="ent0008" data-entity-2="ent0010" data-link-type="dependency" data-source-line="41" id="lnk20"><path d="M1119.57,175.2478 C1147.78,187.4278 1176.2892,199.7367 1206.4592,212.7567" fill="none" id="SN-to-UNIQ" style="stroke:#4A5568;stroke-width:1;"/><polygon fill="#4A5568" points="1211.05,214.7378,1204.3716,207.4991,1206.4592,212.7567,1201.2017,214.8443,1211.05,214.7378" style="stroke:#4A5568;stroke-width:1;stroke-linejoin:miter;stroke-miterlimit:10;"/></g><!--link NF to UNIQ--><g class="link" data-entity-1="ent0009" data-entity-2="ent0010" data-link-type="dependency" data-source-line="42" id="lnk21"><path d="M1136.25,317.0978 C1159.35,308.2378 1179.8013,300.3875 1203.3313,291.3675" fill="none" id="NF-to-UNIQ" style="stroke:#4A5568;stroke-width:1;"/><polygon fill="#4A5568" points="1208,289.5778,1198.1645,289.0643,1203.3313,291.3675,1201.0281,296.5343,1208,289.5778" style="stroke:#4A5568;stroke-width:1;stroke-linejoin:miter;stroke-miterlimit:10;"/></g><!--link UNIQ to TARGET--><g class="link" data-entity-1="ent0010" data-entity-2="ent0012" data-link-type="dependency" data-source-line="43" id="lnk22"><path d="M1396.86,259.5578 C1416.66,260.7878 1432.2896,261.7584 1451.1596,262.9284" fill="none" id="UNIQ-to-TARGET" style="stroke:#4A5568;stroke-width:1;"/><polygon fill="#4A5568" points="1456.15,263.2378,1447.4148,258.6885,1451.1596,262.9284,1446.9197,266.6732,1456.15,263.2378" style="stroke:#4A5568;stroke-width:1;stroke-linejoin:miter;stroke-miterlimit:10;"/></g><!--link NF to BISIM--><g class="link" data-entity-1="ent0009" data-entity-2="ent0013" data-link-type="dependency" data-source-line="44" id="lnk23"><path d="M1135.86,349.7678 C1244.6,348.5678 1438.81,342.2678 1602.4,314.7378 C1627.58,310.4978 1649.5792,305.3545 1674.2892,298.5545" fill="none" id="NF-to-BISIM" style="stroke:#4A5568;stroke-width:1;"/><polygon fill="#4A5568" points="1679.11,297.2278,1669.3713,295.7591,1674.2892,298.5545,1671.4939,303.4724,1679.11,297.2278" style="stroke:#4A5568;stroke-width:1;stroke-linejoin:miter;stroke-miterlimit:10;"/></g><!--link NORM to BISIM--><g class="link" data-entity-1="ent0005" data-entity-2="ent0013" data-link-type="dependency" data-source-line="45" id="lnk24"><path d="M845.96,388.9078 C879.11,394.5078 917.14,399.9878 952,402.7378 C1241.39,425.5978 1322.91,421.1878 1602.4,342.7378 C1641.8,331.6778 1679.4097,315.3272 1711.8297,299.4472" fill="none" id="NORM-to-BISIM" style="stroke:#4A5568;stroke-width:1;"/><polygon fill="#4A5568" points="1716.32,297.2478,1706.478,297.6146,1711.8297,299.4472,1709.9971,304.799,1716.32,297.2478" style="stroke:#4A5568;stroke-width:1;stroke-linejoin:miter;stroke-miterlimit:10;"/></g><!--link TARGET to BISIM--><g class="link" data-entity-1="ent0012" data-entity-2="ent0013" data-link-type="dependency" data-source-line="46" id="lnk25"><path d="M1602.62,267.7378 C1621.4,267.7378 1637.07,267.7378 1657.33,267.7378" fill="none" id="TARGET-to-BISIM" style="stroke:#4A5568;stroke-width:1;"/><polygon fill="#4A5568" points="1662.33,267.7378,1653.33,263.7378,1657.33,267.7378,1653.33,271.7378,1662.33,267.7378" style="stroke:#4A5568;stroke-width:1;stroke-linejoin:miter;stroke-miterlimit:10;"/></g><!--link BISIM to NONVAC--><g class="link" data-entity-1="ent0013" data-entity-2="ent0014" data-link-type="dependency" data-source-line="47" id="lnk26"><path d="M1884.36,267.4878 C1949.92,267.3378 2028.11,267.169 2095.1,267.019" fill="none" id="BISIM-to-NONVAC" style="stroke:#4A5568;stroke-width:1;"/><polygon fill="#4A5568" points="2100.1,267.0078,2091.0911,263.028,2095.1,267.019,2091.109,271.028,2100.1,267.0078" style="stroke:#4A5568;stroke-width:1;stroke-linejoin:miter;stroke-miterlimit:10;"/></g><?plantuml-src VLRhJkD65FxlfpWYFpPP21lkbuL8YHDlgRf1JM3xenHhR9ya0_PCEZCE2rMbFaIVi4_ICpCcE2n2I7Wkv_gTSxx91uZuh5G8EoVj_LCmSuGdLBBDie9hpQM0XP9o2eFUbssO62N534PI5IpdJypO--Par89D2EUbIkVjiTGQ5JJ3SIlu00ikWC7rwEBNwo48fmPJ-dnsZaQH_KY51V0CXU5JZXguWGTkvauYmtPVbVnEG8A6WSAiJ0qalxDFdJy-atqZPqXooWe_Gi7kqQcLYxQHRSDAC4oH1502zlm1sJqaNFEYp7tm3vZdv6NA1MR0H4P1YlQIfQKizNQWxxbOCCKAI5XwFrEo55aeSwcW4GtjNqs2ZB0oDv4KPiGAX48AgHSinQmcfESiam-SC9ooN6FjHc5gc9Zb27y507sfCbILg_tUmS7XCPrQszNPJc-tini6VzSiz9II3-igEKuDOGIAp-O6CcwTKDP1OBWXJxNAmt___0lHDvBHwTnYTWgJaQtg6E2y2r0A_cVfAdPUmU_FVq3qHZHnYUgHWCp8o4QOIqtG4d2-IZ3BPK9Ta58k-DriECT20llEPQ6tt99Qp-XM411wzso6iD7dLdsCqzmdS2KDoo_fu8xssqk0fbhT0TUKCjrJz5nO0Rx4rWOqXiTH9newU5_0tYWgpPXaRyIPvazukjFfRbA0USxj0BId2gcjs4oVVRBNtGrW6iR3w6BqCpJ2lK4lEg92l4GxGD-papBHvceySG7Qr6bDPfMFPZ0yYWvVHpD7biNQu2BEqA0gkE3QyFH6oCHc4YSEY9YgT2UvC3T28KtR4hFLKJnLieYzU2sVS1UaCdCvau8crppMKxaSN_q4ZS5XU3WSheVZ8bbKFdHi1_X6RFenfBsHrT7AZQYOmNOu1ODgiLttDBeSVtt7KuQfGgR9Sb7MZ2vPthnlGK5NjbsB4iwfo-Z3gCIxhOzxjtSVzs_jWMdLlNszVjlNMTBLjZInKJgcFfpc9P7FsQUaIsQ9jvmoDNw3L3lHmJlAlaJKzs9MgKz6MuvJugdb2ioyCHgbDurvInwqsF9YV4C59nmIrq2n9RqQ4BNfMqCrWaR_QBWV7hqJgX_WM4nzeDPoh94QPtNnXczdth8tD7f7W-F-uLgVNuZnNFP9B6GwPHd-HbpGjrHGJQJbQZkGTNfmhNyOxGzxhri_zKPYpzWKZ8EnecONo5Ll_6LuHKYU38y6-p_aQgaeThvSxF6pGPym2Inrp0WEnUmWaOIzS8Rx5vCBwikJQB3NVsLtpHAt8o2grw5M5tgk16gY7Nf_B3FqVW7RptgzzKVVUk4gUCAnOf1sk-icC71ZQ7VXE723KgsfZUrgCWge9-tA5YIWbbgjgG5MQrSjk_DeFT-v55_C-cq5wCk11yBkVRX18AH1IAGnih2Fw7CMKHZj3Je4rQXwBebI8BLKhnt9qzFRHkNdbG1V-1yMppWrSrPiTrfDHwoz5fdno7NFOGTcA4egkKFGlSWv_TD0VNJhvRT0IsTkxI7dsaPpUGMQzff-I6IGF98-qH0gOmDoRtWY1Mu7w1vwW_y3?></g></svg>