<svg xmlns="http://www.w3.org/2000/svg" xmlns:xlink="http://www.w3.org/1999/xlink" contentStyleType="text/css" data-diagram-type="STATE" height="536px" preserveAspectRatio="none" style="width:1460px;height:536px;background:#FEFEFE;" version="1.1" viewBox="0 0 1460 536" width="1460px" zoomAndPan="magnify"><?plantuml $version$?><defs/><g><rect fill="#FEFEFE" height="536" style="stroke:none;stroke-width:1;" width="1460" x="0" y="0"/><g class="title" data-source-line="13"><text fill="#000000" font-family="monospace" font-size="14" font-weight="700" lengthAdjust="spacing" textLength="697.197" x="378.3512" y="24.9659">Figure&#160;19-2&#160;&#8212;&#160;The&#160;five&#160;reserved&#160;de-Bruijn&#160;TRS&#160;receivers&#160;(Driver-B&#160;cascade&#160;topology)</text></g><g class="entity" data-qualified-name="SUBST" data-source-line="15" id="ent0001"><rect fill="#E6DBF2" height="52.6879" rx="12.5" ry="12.5" style="stroke:#4A5568;stroke-width:0.5;" width="236" x="583" y="47.0679"/><line style="stroke:#4A5568;stroke-width:0.5;" x1="583" x2="819" y1="89.7558" y2="89.7558"/><text fill="#1A202C" font-family="monospace" font-size="14" lengthAdjust="spacing" textLength="167.9993" x="593" y="67.0339">^subst(j,&#160;a,&#160;t,&#160;ret)</text><text fill="#1A202C" font-family="monospace" font-size="10" lengthAdjust="spacing" textLength="216" x="593" y="81.8258">capture-avoiding&#160;substitution&#160;t[a/j]</text></g><g class="entity" data-qualified-name="SHIFT" data-source-line="16" id="ent0002"><rect fill="#E6DBF2" height="52.6879" rx="12.5" ry="12.5" style="stroke:#4A5568;stroke-width:0.5;" width="200" x="7" y="324.5179"/><line style="stroke:#4A5568;stroke-width:0.5;" x1="7" x2="207" y1="367.2058" y2="367.2058"/><text fill="#1A202C" font-family="monospace" font-size="14" lengthAdjust="spacing" textLength="142.7994" x="17" y="344.4839">^shift(c,&#160;t,&#160;ret)</text><text fill="#1A202C" font-family="monospace" font-size="10" lengthAdjust="spacing" textLength="180" x="17" y="359.2758">free-variable&#160;shift&#160;(cutoff&#160;c)</text></g><g class="entity" data-qualified-name="SHIFTK" data-source-line="17" id="ent0003"><rect fill="#DCEEF9" height="52.6879" rx="12.5" ry="12.5" style="stroke:#4A5568;stroke-width:0.5;" width="200" x="234" y="178.7579"/><line style="stroke:#4A5568;stroke-width:0.5;" x1="234" x2="434" y1="221.4458" y2="221.4458"/><text fill="#1A202C" font-family="monospace" font-size="14" lengthAdjust="spacing" textLength="151.1993" x="244" y="198.7239">^shiftk(k,&#160;a,&#160;ret)</text><text fill="#1A202C" font-family="monospace" font-size="10" lengthAdjust="spacing" textLength="180" x="244" y="213.5158">k&#160;iterated&#160;^shift(0,&#160;.)&#160;passes</text></g><g class="entity" data-qualified-name="CMP" data-source-line="18" id="ent0004"><rect fill="#DCEEF9" height="52.6879" rx="12.5" ry="12.5" style="stroke:#4A5568;stroke-width:0.5;" width="212" x="298" y="470.2679"/><line style="stroke:#4A5568;stroke-width:0.5;" x1="298" x2="510" y1="512.9558" y2="512.9558"/><text fill="#1A202C" font-family="monospace" font-size="14" lengthAdjust="spacing" textLength="125.9995" x="308" y="490.2339">^cmp(m,&#160;n,&#160;ret)</text><text fill="#1A202C" font-family="monospace" font-size="10" lengthAdjust="spacing" textLength="192" x="308" y="505.0258">Peano&#160;compare&#160;-&gt;&#160;^Eq&#160;/&#160;^Lt&#160;/&#160;^Gt</text></g><g class="entity" data-qualified-name="PRED" data-source-line="19" id="ent0005"><rect fill="#DCEEF9" height="52.6879" rx="12.5" ry="12.5" style="stroke:#4A5568;stroke-width:0.5;" width="158" x="887" y="178.7579"/><line style="stroke:#4A5568;stroke-width:0.5;" x1="887" x2="1045" y1="221.4458" y2="221.4458"/><text fill="#1A202C" font-family="monospace" font-size="14" lengthAdjust="spacing" textLength="109.1995" x="897" y="198.7239">^pred(n,&#160;ret)</text><text fill="#1A202C" font-family="monospace" font-size="10" lengthAdjust="spacing" textLength="138" x="897" y="213.5158">TOTAL&#160;Peano&#160;predecessor</text></g><g class="entity" data-qualified-name="GMN16" data-source-line="35" id="ent0017"><path d="M754.1,310.4479 L754.1,391.272 A0,0 0 0 0 754.1,391.272 L1445.8994,391.272 A0,0 0 0 0 1445.8994,391.272 L1445.8994,320.4479 L1435.8994,310.4479 L1066.85,310.4479 L989.96,231.7979 L1058.85,310.4479 L754.1,310.4479 A0,0 0 0 0 754.1,310.4479" fill="#EAF7EE" style="stroke:#181818;stroke-width:0.5;"/><path d="M1435.8994,310.4479 L1435.8994,320.4479 L1445.8994,320.4479 L1435.8994,310.4479" fill="#EAF7EE" style="stroke:#181818;stroke-width:0.5;"/><text fill="#000000" font-family="monospace" font-size="13" lengthAdjust="spacing" textLength="436.7998" x="760.1" y="329.3449">Terminating&#160;base&#160;cases&#160;(return&#160;an&#160;OBJECT,&#160;no&#160;re-spread):</text><text fill="#000000" font-family="monospace" font-size="13" lengthAdjust="spacing" textLength="413.3998" x="760.1" y="347.0509">^subst/^shift&#160;on&#160;^free&#160;x&#160;-&gt;&#160;x&#160;;&#160;&#160;^shiftk(Z,&#160;a)&#160;-&gt;&#160;a&#160;;</text><text fill="#000000" font-family="monospace" font-size="13" lengthAdjust="spacing" textLength="655.1995" x="760.1" y="364.757">^cmp(Z,Z)&#160;-&gt;&#160;Eq&#160;;&#160;&#160;^pred(Z)&#160;-&gt;&#160;Z&#160;;&#160;&#160;^subst(_,&#160;_,&#160;^bound&#160;n)&#160;with&#160;^cmp=Lt&#160;-&gt;&#160;^bound&#160;n.</text><text fill="#000000" font-family="monospace" font-size="13" lengthAdjust="spacing" textLength="670.7994" x="760.1" y="382.463">Reserved&#160;channels&#160;=&#160;GPrivate(reflect_tag(fp,&#160;"^.."))&#160;&#8212;&#160;unforgeable&#160;vs&#160;any&#160;object&#160;ctor.</text></g><!--link SUBST to CMP--><g class="link" data-entity-1="ent0001" data-entity-2="ent0004" data-link-type="dependency" data-source-line="21" id="lnk6"><path d="M706.26,100.1879 C716.62,158.6279 733.23,302.9979 666,391.2679 C628.92,439.9579 570.4286,464.7568 515.3186,478.6368" fill="none" id="SUBST-to-CMP" style="stroke:#805AD5;stroke-width:1;"/><polygon fill="#805AD5" points="510.47,479.8579,520.1744,481.5387,515.3186,478.6368,518.2205,473.781,510.47,479.8579" style="stroke:#805AD5;stroke-width:1;stroke-linejoin:miter;stroke-miterlimit:10;"/><text fill="#000000" font-family="monospace" font-size="13" lengthAdjust="spacing" textLength="163.8001" x="713.73" y="276.3449">^bound&#160;n&#160;:&#160;^cmp(n,&#160;j)</text></g><!--link SUBST to SHIFTK--><g class="link" data-entity-1="ent0001" data-entity-2="ent0003" data-link-type="dependency" data-source-line="22" id="lnk7"><path d="M582.54,98.3779 C548.3,106.7579 511.23,117.2579 478,129.7579 C442.85,142.9879 409.5562,160.1836 381.5662,175.9536" fill="none" id="SUBST-to-SHIFTK" style="stroke:#C05621;stroke-width:1;"/><polygon fill="#C05621" points="377.21,178.4079,387.0146,177.4751,381.5662,175.9536,383.0876,170.5052,377.21,178.4079" style="stroke:#C05621;stroke-width:1;stroke-linejoin:miter;stroke-miterlimit:10;"/><text fill="#000000" font-family="monospace" font-size="13" lengthAdjust="spacing" textLength="195.0001" x="479" y="144.6549">^cmp&#160;=&#160;Eq&#160;:&#160;^shiftk(j,&#160;a)</text></g><!--link SUBST to PRED--><g class="link" data-entity-1="ent0001" data-entity-2="ent0005" data-link-type="dependency" data-source-line="23" id="lnk8"><path d="M753.67,100.1879 C800.01,122.8679 862.6292,153.5096 908.9392,176.1796" fill="none" id="SUBST-to-PRED" style="stroke:#805AD5;stroke-width:1;"/><polygon fill="#805AD5" points="913.43,178.3779,907.1053,170.8282,908.9392,176.1796,903.5879,178.0135,913.43,178.3779" style="stroke:#805AD5;stroke-width:1;stroke-linejoin:miter;stroke-miterlimit:10;"/><text fill="#000000" font-family="monospace" font-size="13" lengthAdjust="spacing" textLength="156.0001" x="850.37" y="144.6549">^cmp&#160;=&#160;Gt&#160;:&#160;^pred(n)</text></g><!--link SUBST to SUBST--><g class="link" data-entity-1="ent0001" data-entity-2="ent0001" data-link-type="dependency" data-source-line="24" id="lnk9"><path d="M819.36,67.6379 C839.81,68.4179 854,70.3479 854,73.4179 C854,76.4879 844.8064,78.2173 824.3564,78.9973" fill="none" id="SUBST-to-SUBST" style="stroke:#2F855A;stroke-width:1;"/><polygon fill="#2F855A" points="819.36,79.1879,828.5059,82.842,824.3564,78.9973,828.201,74.8478,819.36,79.1879" style="stroke:#2F855A;stroke-width:1;stroke-linejoin:miter;stroke-miterlimit:10;"/><text fill="#000000" font-family="monospace" font-size="13" lengthAdjust="spacing" textLength="226.2001" x="860" y="69.8149">^lambda&#160;b&#160;:&#160;^subst(S&#160;j,&#160;a,&#160;b)</text><text fill="#000000" font-family="monospace" font-size="13" font-weight="700" lengthAdjust="spacing" textLength="156.0001" x="895.1" y="87.5209">DEPTH&#160;INCREMENT&#160;(C1)</text></g><!--link SUBST to SUBST--><g class="link" data-entity-1="ent0001" data-entity-2="ent0001" data-link-type="dependency" data-source-line="25" id="lnk10"><path d="M819.45,62.8079 C936.81,58.5579 1092,62.0979 1092,73.4179 C1092,84.7279 941.8067,88.4484 824.4467,84.2084" fill="none" id="SUBST-to-SUBST-1" style="stroke:#2B6CB0;stroke-width:1;"/><polygon fill="#2B6CB0" points="819.45,84.0279,828.2997,88.3503,824.4467,84.2084,828.5886,80.3555,819.45,84.0279" style="stroke:#2B6CB0;stroke-width:1;stroke-linejoin:miter;stroke-miterlimit:10;"/><text fill="#000000" font-family="monospace" font-size="13" lengthAdjust="spacing" textLength="202.8001" x="1098.6" y="71.8149">C(t..)&#160;:&#160;^subst(j,&#160;a,&#160;t..)</text><text fill="#000000" font-family="monospace" font-size="10" lengthAdjust="spacing" textLength="204" x="1098" y="86.3139">C2&#160;object&#160;congruence&#160;(j&#160;unchanged)</text></g><!--link SHIFTK to SHIFT--><g class="link" data-entity-1="ent0003" data-entity-2="ent0002" data-link-type="dependency" data-source-line="27" id="lnk11"><path d="M293.42,231.7979 C252.23,257.8879 193.0445,295.3734 151.8345,321.4634" fill="none" id="SHIFTK-to-SHIFT" style="stroke:#C05621;stroke-width:1;"/><polygon fill="#C05621" points="147.61,324.1379,157.3538,322.7034,151.8345,321.4634,153.0745,315.9441,147.61,324.1379" style="stroke:#C05621;stroke-width:1;stroke-linejoin:miter;stroke-miterlimit:10;"/><text fill="#000000" font-family="monospace" font-size="13" lengthAdjust="spacing" textLength="234.0001" x="241.83" y="276.3449">S&#160;k&#160;:&#160;^shift(0,&#160;^shiftk(k,&#160;a))</text></g><!--link SHIFTK to SHIFTK--><g class="link" data-entity-1="ent0003" data-entity-2="ent0003" data-link-type="dependency" data-source-line="28" id="lnk12"><path d="M434.38,193.2479 C454.57,194.5579 469,198.5079 469,205.0979 C469,211.6879 459.5595,215.3242 439.3695,216.6342" fill="none" id="SHIFTK-to-SHIFTK" style="stroke:#C05621;stroke-width:1;"/><polygon fill="#C05621" points="434.38,216.9579,443.6201,220.3668,439.3695,216.6342,443.1021,212.3836,434.38,216.9579" style="stroke:#C05621;stroke-width:1;stroke-linejoin:miter;stroke-miterlimit:10;"/><text fill="#000000" font-family="monospace" font-size="13" lengthAdjust="spacing" textLength="109.2" x="475" y="210.4949">recursion&#160;on&#160;k</text></g><!--link SHIFT to CMP--><g class="link" data-entity-1="ent0002" data-entity-2="ent0004" data-link-type="dependency" data-source-line="30" id="lnk13"><path d="M160.1,377.5579 C213.91,403.6079 292.1994,441.4998 346.1094,467.5898" fill="none" id="SHIFT-to-CMP" style="stroke:#805AD5;stroke-width:1;"/><polygon fill="#805AD5" points="350.61,469.7679,344.2513,462.2468,346.1094,467.5898,340.7663,469.4478,350.61,469.7679" style="stroke:#805AD5;stroke-width:1;stroke-linejoin:miter;stroke-miterlimit:10;"/><text fill="#000000" font-family="monospace" font-size="13" lengthAdjust="spacing" textLength="163.8001" x="283.1" y="436.1649">^bound&#160;n&#160;:&#160;^cmp(n,&#160;c)</text></g><!--link SHIFT to SHIFT--><g class="link" data-entity-1="ent0002" data-entity-2="ent0002" data-link-type="dependency" data-source-line="31" id="lnk14"><path d="M207.38,343.6679 C227.57,344.4579 242,346.8579 242,350.8579 C242,354.8579 232.5662,357.0624 212.3762,357.8524" fill="none" id="SHIFT-to-SHIFT" style="stroke:#2F855A;stroke-width:1;"/><polygon fill="#2F855A" points="207.38,358.0479,216.5295,361.693,212.3762,357.8524,216.2167,353.6991,207.38,358.0479" style="stroke:#2F855A;stroke-width:1;stroke-linejoin:miter;stroke-miterlimit:10;"/><text fill="#000000" font-family="monospace" font-size="13" lengthAdjust="spacing" textLength="202.8001" x="248" y="349.2549">^lambda&#160;b&#160;:&#160;^shift(S&#160;c,&#160;b)</text><text fill="#000000" font-family="monospace" font-size="10" lengthAdjust="spacing" textLength="186" x="256.4" y="363.7539">cutoff&#160;INCREMENT&#160;under&#160;a&#160;binder</text></g><!--link SHIFT to SHIFT--><g class="link" data-entity-1="ent0002" data-entity-2="ent0002" data-link-type="dependency" data-source-line="32" id="lnk15"><path d="M207.29,338.2779 C312.68,332.6779 456,336.8679 456,350.8579 C456,364.8479 317.673,369.3032 212.283,363.7032" fill="none" id="SHIFT-to-SHIFT-1" style="stroke:#2B6CB0;stroke-width:1;"/><polygon fill="#2B6CB0" points="207.29,363.4379,216.0651,367.9098,212.283,363.7032,216.4896,359.9211,207.29,363.4379" style="stroke:#2B6CB0;stroke-width:1;stroke-linejoin:miter;stroke-miterlimit:10;"/><text fill="#000000" font-family="monospace" font-size="13" lengthAdjust="spacing" textLength="179.4001" x="462" y="349.2549">C(t..)&#160;:&#160;^shift(c,&#160;t..)</text><text fill="#000000" font-family="monospace" font-size="10" lengthAdjust="spacing" textLength="120" x="491.7" y="363.7539">C2&#160;object&#160;congruence</text></g><?plantuml-src ZLNXRjis4FxlfpWaFoe1bcCRSvOwhG5RbjjkRMh4sfzqTK59b4pR8ZMIijiD0_OGUy8zoOwK8YjrYmqH0k5yzttaTz-Tdi62PQMaC7Zk3SUWDnHITg0WgQBoG1DyYIa6f0A23oYwJpr9FLL8IXB6CuY9Yab2mPbBa-VDt5xd6GGate3IH5DWfgv01AOqvRf11C61S2XvAcH6IRHliSORmZdTtm8rE3J9AXW4blGe6QBA4lFrXcXO1NVp5SQJCiPALKRUKSYTHJy31EVi0dXSjMEy89Ba495ubqbHyiGNUo7XSX6OlrP6GbDIxlL2S7r7SWgvu48L1AbRIMf34d4qwgHahsZx5ol97ns0cP09bJND3zFHwFe6emQtZWscm_xGnzXKId5yclXdfwEPHWLQtOD__leRmhC69jIRoP9jEOJtgrOxctur7TIYG9BiYzlfLCUyMAEQIZlRBf0kw2vMQ_TN_aAnt-buq9_4fD38xf63ODOBDftfKZDKNtyWLzkFBwvCzkJ2s6VrosmLmcLmFPyjXYUE3Kkr4t-B89MKUWSYcNM7JGGdBhL8KuZT9z2ltoo-0xrpTlRyNs7l06qaCI-1-WZzBlHSA8XIL9rX_moNSpy85iyRy3WldBmB_0nvIGaN48iSMqx1cy0w-0skOFrMc_-lT1lRVxSy0qPd9iuvRFW-dBw52joaO2UL4hADjhmFvWrSfvBR-t1vqnzDvwEFU193DuPrP1mEtBoQMo3NrZsb-_tHzN1WqkkRLsdm4l0UOtXKrRZ2_HQ9FKLJyqgRz-fEhVJXucOqcbeI6yASFScZX41aEQpnLb1PBp8wH9Dvi0nVmvix_pvu5zo5uFW3D44qQQ7EhlrPlutgExg7NMqWQozZh2MjFmGHRMciiMiyaoNbCIwqBUucipSocZnw3KMj93cN2IbMi6lqCMvg-yzrlrzg5CR1B755ujpWiwjv_cVpOlUKtjArFjLJNUtPLX3NeZQZN0tLILlam1MDLSoyF5x_H7CIkgPf2TqCz7-htEZA1Ne_4bgB74HQEpcOBduC0bo18PKvuqIR9HCHHStEehZ3S4HAQJyZxsS_1Nw8uoYWsUxk64khlbzLfpBYhirMWSzcC3_3BJHTUZ1TCb42jwREYFlGVR0XDBx9j2wk8WzLgVNKfoxWyzWO5uvCRspzInnvC__rBps4lV_gYwJCY2nn5UFiutNIFUhpIPFCIOikxe9Uxy9rxMPlVoSF-2taNnerjP2z3ZKCAEA_?></g></svg>