<svg xmlns="http://www.w3.org/2000/svg" xmlns:xlink="http://www.w3.org/1999/xlink" contentStyleType="text/css" data-diagram-type="DESCRIPTION" height="1140px" preserveAspectRatio="none" style="width:1316px;height:1140px;background:#FEFEFE;" version="1.1" viewBox="0 0 1316 1140" width="1316px" zoomAndPan="magnify"><?plantuml $version$?><defs/><g><rect fill="#FEFEFE" height="1140" style="stroke:none;stroke-width:1;" width="1316" x="0" y="0"/><g class="title" data-source-line="19"><text fill="#000000" font-family="sans" font-size="14" font-weight="700" lengthAdjust="spacing" textLength="576.7557" x="366.3271" y="24.9659">Three-Layer Architecture &#8212; In-Rho Set-Automaton Matching (Base-Rewrite Family)</text></g><g class="legend" data-source-line="21"><rect fill="none" height="128.4075" rx="7.5" ry="7.5" style="stroke:#000000;stroke-width:1;" width="321.1488" x="976.2612" y="52.0679"/><text fill="#000000" font-family="sans" font-size="14" font-weight="700" lengthAdjust="spacing" textLength="44.2538" x="984.9012" y="74.0339">colour</text><text fill="#000000" font-family="sans" font-size="14" font-weight="700" lengthAdjust="spacing" textLength="55.5798" x="1036.435" y="74.0339">concept</text><rect fill="#E8F0FE" height="19.0679" style="stroke:none;stroke-width:1;" width="51.5338" x="981.2612" y="78.1358"/><text fill="#000000" font-family="sans" font-size="14" lengthAdjust="spacing" textLength="3.64" x="981.2612" y="93.1018">&#160;</text><text fill="#000000" font-family="sans" font-size="14" lengthAdjust="spacing" textLength="184.2533" x="1036.435" y="93.1018">reflect / spread (the subject)</text><rect fill="#C9E7D4" height="19.0679" style="stroke:none;stroke-width:1;" width="51.5338" x="981.2612" y="97.2038"/><text fill="#000000" font-family="sans" font-size="14" lengthAdjust="spacing" textLength="3.64" x="981.2612" y="112.1697">&#160;</text><text fill="#000000" font-family="sans" font-size="14" lengthAdjust="spacing" textLength="201.6552" x="1036.435" y="112.1697">automaton / matching (in Rho)</text><rect fill="#F7D9D5" height="19.0679" style="stroke:none;stroke-width:1;" width="51.5338" x="981.2612" y="116.2717"/><text fill="#000000" font-family="sans" font-size="14" lengthAdjust="spacing" textLength="3.64" x="981.2612" y="131.2376">&#160;</text><text fill="#000000" font-family="sans" font-size="14" lengthAdjust="spacing" textLength="199.2472" x="1036.435" y="131.2376">firing / &#963;-receiver (one COMM)</text><rect fill="#FEF7E0" height="19.0679" style="stroke:none;stroke-width:1;" width="51.5338" x="981.2612" y="135.3396"/><text fill="#000000" font-family="sans" font-size="14" lengthAdjust="spacing" textLength="3.64" x="981.2612" y="150.3055">&#160;</text><text fill="#000000" font-family="sans" font-size="14" lengthAdjust="spacing" textLength="132.2435" x="1036.435" y="150.3055">observation / @OUT</text><rect fill="#F7E0C8" height="19.0679" style="stroke:none;stroke-width:1;" width="51.5338" x="981.2612" y="154.4075"/><text fill="#000000" font-family="sans" font-size="14" lengthAdjust="spacing" textLength="3.64" x="981.2612" y="169.3734">&#160;</text><text fill="#000000" font-family="sans" font-size="14" lengthAdjust="spacing" textLength="252.335" x="1036.435" y="169.3734">congruence + predicates (off machine)</text><line style="stroke:#000000;stroke-width:1;" x1="981.2612" x2="1292.41" y1="59.0679" y2="59.0679"/><line style="stroke:#000000;stroke-width:1;" x1="981.2612" x2="1292.41" y1="78.1358" y2="78.1358"/><line style="stroke:#000000;stroke-width:1;" x1="981.2612" x2="1292.41" y1="97.2038" y2="97.2038"/><line style="stroke:#000000;stroke-width:1;" x1="981.2612" x2="1292.41" y1="116.2717" y2="116.2717"/><line style="stroke:#000000;stroke-width:1;" x1="981.2612" x2="1292.41" y1="135.3396" y2="135.3396"/><line style="stroke:#000000;stroke-width:1;" x1="981.2612" x2="1292.41" y1="154.4075" y2="154.4075"/><line style="stroke:#000000;stroke-width:1;" x1="981.2612" x2="1292.41" y1="173.4754" y2="173.4754"/><line style="stroke:#000000;stroke-width:1;" x1="981.2612" x2="981.2612" y1="59.0679" y2="173.4754"/><line style="stroke:#000000;stroke-width:1;" x1="1032.795" x2="1032.795" y1="59.0679" y2="173.4754"/><line style="stroke:#000000;stroke-width:1;" x1="1292.41" x2="1292.41" y1="59.0679" y2="173.4754"/></g><!--cluster Layer 1 ? MATCHING   (f1r3node interpreter; internal ?-labelled COMMs)--><g class="cluster" data-qualified-name="Layer 1 . MATCHING   .f1r3node interpreter. internal .-labelled COMMs." data-source-line="30" id="ent0001"><path d="M50.91,200.0774 L557.6863,200.0774 A3.75,3.75 0 0 1 560.1863,202.5774 L567.1863,225.1453 L566.91,225.1453 A2.5,2.5 0 0 1 569.41,227.6453 L569.41,814.0374 A2.5,2.5 0 0 1 566.91,816.5374 L50.91,816.5374 A2.5,2.5 0 0 1 48.41,814.0374 L48.41,202.5774 A2.5,2.5 0 0 1 50.91,200.0774" fill="#E6F4EA" style="stroke:#9A9A9A;stroke-width:1.5;"/><line style="stroke:#9A9A9A;stroke-width:1.5;" x1="48.41" x2="567.1863" y1="225.1453" y2="225.1453"/><text fill="#202020" font-family="sans" font-size="14" font-weight="700" lengthAdjust="spacing" textLength="505.7763" x="52.41" y="217.0433">Layer 1 &#8212; MATCHING   (f1r3node interpreter; internal &#964;-labelled COMMs)</text></g><!--cluster Layer 2 ? FIRING   (one atomic c(?) COMM per located redex)--><g class="cluster" data-qualified-name="Layer 2 . FIRING   .one atomic c... COMM per located redex." data-source-line="37" id="ent0006"><path d="M436.91,885.5374 L861.3244,885.5374 A3.75,3.75 0 0 1 863.8244,888.0374 L870.8244,910.6053 L870.91,910.6053 A2.5,2.5 0 0 1 873.41,913.1053 L873.41,1122.5374 A2.5,2.5 0 0 1 870.91,1125.0374 L436.91,1125.0374 A2.5,2.5 0 0 1 434.41,1122.5374 L434.41,888.0374 A2.5,2.5 0 0 1 436.91,885.5374" fill="#FCE8E6" style="stroke:#9A9A9A;stroke-width:1.5;"/><line style="stroke:#9A9A9A;stroke-width:1.5;" x1="434.41" x2="870.8244" y1="910.6053" y2="910.6053"/><text fill="#202020" font-family="sans" font-size="14" font-weight="700" lengthAdjust="spacing" textLength="423.4144" x="438.41" y="902.5033">Layer 2 &#8212; FIRING   (one atomic c(&#8467;) COMM per located redex)</text></g><!--cluster Layer 3 ? CONGRUENCE & PREDICATES   (never a COMM)--><g class="cluster" data-qualified-name="Layer 3 . CONGRUENCE . PREDICATES   .never a COMM." data-source-line="42" id="ent0009"><path d="M676.91,207.5674 L1071.1685,207.5674 A3.75,3.75 0 0 1 1073.6685,210.0674 L1080.6685,232.6353 L1298.91,232.6353 A2.5,2.5 0 0 1 1301.41,235.1353 L1301.41,317.2074 A2.5,2.5 0 0 1 1298.91,319.7074 L676.91,319.7074 A2.5,2.5 0 0 1 674.41,317.2074 L674.41,210.0674 A2.5,2.5 0 0 1 676.91,207.5674" fill="#FCE8D6" style="stroke:#9A9A9A;stroke-width:1.5;"/><line style="stroke:#9A9A9A;stroke-width:1.5;" x1="674.41" x2="1080.6685" y1="232.6353" y2="232.6353"/><text fill="#202020" font-family="sans" font-size="14" font-weight="700" lengthAdjust="spacing" textLength="393.2585" x="678.41" y="224.5333">Layer 3 &#8212; CONGRUENCE &amp; PREDICATES   (never a COMM)</text></g><!--entity REFLECT--><g class="entity" data-qualified-name="Layer 1 . MATCHING   .f1r3node interpreter. internal .-labelled COMMs..REFLECT" data-source-line="31" id="ent0002"><rect fill="#E8F0FE" height="73.1177" rx="2.5" ry="2.5" style="stroke:#7A7A7A;stroke-width:0.5;" width="276.969" x="169.93" y="238.0774"/><text fill="#202020" font-family="sans" font-size="14" lengthAdjust="spacing" textLength="204.6217" x="179.93" y="263.0433">Term &#8594; GroundTerm reflection</text><text fill="#202020" font-family="sans" font-size="11" lengthAdjust="spacing" textLength="227.4673" x="179.93" y="278.9042">reflect_category_fn / reflect_subject_binding</text><text fill="#202020" font-family="sans" font-size="14" font-style="italic" lengthAdjust="spacing" textLength="256.969" x="179.93" y="297.0931">reflects the WHOLE subject; total-or-reject</text></g><!--entity SPREAD--><g class="entity" data-qualified-name="Layer 1 . MATCHING   .f1r3node interpreter. internal .-labelled COMMs..SPREAD" data-source-line="32" id="ent0003"><rect fill="#E8F0FE" height="73.1177" rx="2.5" ry="2.5" style="stroke:#7A7A7A;stroke-width:0.5;" width="275.0238" x="170.9" y="390.1974"/><text fill="#202020" font-family="sans" font-size="14" lengthAdjust="spacing" textLength="72.6351" x="180.9" y="415.1633">Spread  &#10214;t&#10215;</text><text fill="#202020" font-family="sans" font-size="11" lengthAdjust="spacing" textLength="87.9664" x="180.9" y="431.0242">spread_term_par</text><text fill="#202020" font-family="sans" font-size="14" lengthAdjust="spacing" textLength="255.0238" x="180.9" y="449.2131">loc: head tags  &#9474;  col:/cap: collapse fold</text></g><!--entity LOCATE--><g class="entity" data-qualified-name="Layer 1 . MATCHING   .f1r3node interpreter. internal .-labelled COMMs..LOCATE" data-source-line="33" id="ent0004"><rect fill="#D7ECFB" height="69.0317" rx="2.5" ry="2.5" style="stroke:#7A7A7A;stroke-width:0.5;" width="210.7431" x="203.04" y="542.3174"/><text fill="#202020" font-family="sans" font-size="14" lengthAdjust="spacing" textLength="123.4095" x="213.04" y="567.2833">Locate-all site walk</text><text fill="#202020" font-family="sans" font-size="11" lengthAdjust="spacing" textLength="190.7431" x="213.04" y="583.1442">collect_redex_sites &#8594; site path &#8988;(&#961;,&#8467;)&#8989;</text><text fill="#202020" font-family="sans" font-size="11" lengthAdjust="spacing" textLength="159.4438" x="213.04" y="598.1261">in_rho_match_all_sites_call_par</text></g><!--entity AUTO--><g class="entity" data-qualified-name="Layer 1 . MATCHING   .f1r3node interpreter. internal .-labelled COMMs..AUTO" data-source-line="34" id="ent0005"><rect fill="#C9E7D4" height="92.1856" rx="2.5" ry="2.5" style="stroke:#7A7A7A;stroke-width:0.5;" width="317.7509" x="149.53" y="708.3474"/><text fill="#202020" font-family="sans" font-size="14" lengthAdjust="spacing" textLength="153.0754" x="159.53" y="733.3133">sa: automaton network</text><text fill="#202020" font-family="sans" font-size="11" lengthAdjust="spacing" textLength="186.2616" x="159.53" y="749.1742">multi_pattern_receiver_network_par</text><text fill="#202020" font-family="sans" font-size="14" lengthAdjust="spacing" textLength="218.3292" x="159.53" y="767.3631">Match/MatchCase head dispatch;</text><text fill="#202020" font-family="sans" font-size="14" lengthAdjust="spacing" textLength="297.7509" x="159.53" y="786.4311">one for-receive per StateId  (O1 symbol-once)</text></g><!--entity SIGMA--><g class="entity" data-qualified-name="Layer 2 . FIRING   .one atomic c... COMM per located redex..SIGMA" data-source-line="38" id="ent0007"><rect fill="#F7D9D5" height="54.0498" rx="2.5" ry="2.5" style="stroke:#7A7A7A;stroke-width:0.5;" width="167.4474" x="453.69" y="923.5374"/><text fill="#202020" font-family="sans" font-size="14" lengthAdjust="spacing" textLength="147.4474" x="463.69" y="948.5033">&#963;-receiver  (persistent)</text><text fill="#202020" font-family="sans" font-size="11" lengthAdjust="spacing" textLength="99.9783" x="463.69" y="964.3642">sigma_receiver_par</text></g><!--entity OUT--><g class="entity" data-qualified-name="Layer 2 . FIRING   .one atomic c... COMM per located redex..OUT" data-source-line="39" id="ent0008"><rect fill="#FEF7E0" height="39.0679" rx="2.5" ry="2.5" style="stroke:#7A7A7A;stroke-width:0.5;" width="173.2607" x="450.78" y="1069.9674"/><text fill="#202020" font-family="sans" font-size="14" lengthAdjust="spacing" textLength="153.2607" x="460.78" y="1094.9333">&#10214;R&#10215;&#963;  landed on  @OUT</text></g><!--entity CONG--><g class="entity" data-qualified-name="Layer 3 . CONGRUENCE . PREDICATES   .never a COMM..CONG" data-source-line="43" id="ent0010"><rect fill="#F7E0C8" height="58.1358" rx="2.5" ry="2.5" style="stroke:#7A7A7A;stroke-width:0.5;" width="255.3671" x="690.73" y="245.5674"/><text fill="#202020" font-family="sans" font-size="14" lengthAdjust="spacing" textLength="77.0417" x="700.73" y="270.5333">Equations =</text><text fill="#202020" font-family="sans" font-size="14" lengthAdjust="spacing" textLength="235.3671" x="700.73" y="289.6013">compile-time structural congruence</text></g><!--entity PRED--><g class="entity" data-qualified-name="Layer 3 . CONGRUENCE . PREDICATES   .never a COMM..PRED" data-source-line="44" id="ent0011"><rect fill="#F7E0C8" height="58.1358" rx="2.5" ry="2.5" style="stroke:#7A7A7A;stroke-width:0.5;" width="304.1149" x="981.35" y="245.5674"/><text fill="#202020" font-family="sans" font-size="14" lengthAdjust="spacing" textLength="132.9435" x="991.35" y="270.5333">Semantic predicates</text><text fill="#202020" font-family="sans" font-size="14" lengthAdjust="spacing" textLength="284.1149" x="991.35" y="289.6013">(Effective Boolean Algebra / native handler)</text></g><g class="entity" data-qualified-name="GMN17" data-source-line="54" id="ent0018"><path d="M6,910.1474 L6,990.9715 A0,0 0 0 0 6,990.9715 L418.8203,990.9715 A0,0 0 0 0 418.8203,990.9715 L418.8203,920.1474 L408.8203,910.1474 L236.01,910.1474 L285.9,800.9474 L228.01,910.1474 L6,910.1474 A0,0 0 0 0 6,910.1474" fill="#E6F4EA" style="stroke:#181818;stroke-width:0.5;"/><path d="M408.8203,910.1474 L408.8203,920.1474 L418.8203,920.1474 L408.8203,910.1474" fill="#E6F4EA" style="stroke:#181818;stroke-width:0.5;"/><text fill="#000000" font-family="sans" font-size="13" lengthAdjust="spacing" textLength="391.8203" x="12" y="929.0444">&#963; is PRODUCED HERE &#8212; the accept reads the cap: capture of the</text><text fill="#000000" font-family="sans" font-size="13" lengthAdjust="spacing" textLength="363.8313" x="12" y="946.7504">reflected spread &#8212; NOT read from the host Dovetail report.</text><text fill="#000000" font-family="sans" font-size="13" lengthAdjust="spacing" textLength="364.3643" x="12" y="964.4564">The host runtime matcher is RETIRED from the MATCH path</text><text fill="#000000" font-family="sans" font-size="13" lengthAdjust="spacing" textLength="330.5383" x="12" y="982.1625">(reconstruct_redex_subject survives only as an oracle).</text></g><g class="entity" data-qualified-name="GMN20" data-source-line="61" id="ent0021"><path d="M585.75,404.0474 L585.75,449.4594 A0,0 0 0 0 585.75,449.4594 L1051.0773,449.4594 A0,0 0 0 0 1051.0773,449.4594 L1051.0773,414.0474 L1041.0773,404.0474 L822.41,404.0474 L818.41,303.8774 L814.41,404.0474 L585.75,404.0474 A0,0 0 0 0 585.75,404.0474" fill="#FCE8D6" style="stroke:#181818;stroke-width:0.5;"/><path d="M1041.0773,404.0474 L1041.0773,414.0474 L1051.0773,414.0474 L1041.0773,404.0474" fill="#FCE8D6" style="stroke:#181818;stroke-width:0.5;"/><text fill="#000000" font-family="sans" font-size="13" lengthAdjust="spacing" textLength="444.3273" x="591.75" y="422.9444">Congruence closes the whole-term normal form (host e-graph plugging);</text><text fill="#000000" font-family="sans" font-size="13" lengthAdjust="spacing" textLength="166.2312" x="591.75" y="440.6504">it is not itself a rendezvous.</text></g><!--link REFLECT to SPREAD--><g class="link" data-entity-1="ent0002" data-entity-2="ent0003" data-link-type="dependency" data-source-line="47" id="lnk12"><path d="M308.41,311.5974 C308.41,335.2774 308.41,361.1574 308.41,384.8374" fill="none" id="REFLECT-to-SPREAD" style="stroke:#2E6DB4;stroke-width:2;"/><polygon fill="#2E6DB4" points="308.41,389.8374,312.41,380.8374,308.41,384.8374,304.41,380.8374,308.41,389.8374" style="stroke:#2E6DB4;stroke-width:2;stroke-linejoin:miter;stroke-miterlimit:10;"/><text fill="#000000" font-family="sans" font-size="13" lengthAdjust="spacing" textLength="78.8451" x="309.41" y="356.0944">GroundTerm</text></g><!--link SPREAD to LOCATE--><g class="link" data-entity-1="ent0003" data-entity-2="ent0004" data-link-type="dependency" data-source-line="48" id="lnk13"><path d="M308.41,463.5974 C308.41,487.3974 308.41,513.4374 308.41,536.8374" fill="none" id="SPREAD-to-LOCATE" style="stroke:#2E6DB4;stroke-width:2;"/><polygon fill="#2E6DB4" points="308.41,541.8374,312.41,532.8374,308.41,536.8374,304.41,532.8374,308.41,541.8374" style="stroke:#2E6DB4;stroke-width:2;stroke-linejoin:miter;stroke-miterlimit:10;"/><text fill="#000000" font-family="sans" font-size="13" lengthAdjust="spacing" textLength="95.3681" x="309.41" y="508.2144">one spread at &#961;</text></g><!--link LOCATE to AUTO--><g class="link" data-entity-1="ent0004" data-entity-2="ent0005" data-link-type="dependency" data-source-line="49" id="lnk14"><path d="M308.41,611.6874 C308.41,639.0974 308.41,672.9574 308.41,703.0574" fill="none" id="LOCATE-to-AUTO" style="stroke:#2E8B57;stroke-width:2;"/><polygon fill="#2E8B57" points="308.41,708.0574,312.41,699.0574,308.41,703.0574,304.41,699.0574,308.41,708.0574" style="stroke:#2E8B57;stroke-width:2;stroke-linejoin:miter;stroke-miterlimit:10;"/><text fill="#000000" font-family="sans" font-size="13" lengthAdjust="spacing" textLength="119.1061" x="312.5463" y="656.2444">co-install a network</text><text fill="#000000" font-family="sans" font-size="13" lengthAdjust="spacing" textLength="125.3786" x="309.41" y="673.9504">per redex site &#8988;(&#961;,&#8467;)&#8989;</text></g><!--link AUTO to SIGMA--><g class="link" data-entity-1="ent0005" data-entity-2="ent0007" data-link-type="dependency" data-source-line="50" id="lnk15"><path d="M362.1,800.9474 C406.92,838.9374 465.4262,888.5339 502.4262,919.9039" fill="none" id="AUTO-to-SIGMA" style="stroke:#C0392B;stroke-width:2;"/><polygon fill="#C0392B" points="506.24,923.1374,501.962,914.2662,502.4262,919.9039,496.7885,920.3682,506.24,923.1374" style="stroke:#C0392B;stroke-width:2;stroke-linejoin:miter;stroke-miterlimit:10;"/><text fill="#000000" font-family="sans" font-size="13" font-weight="700" lengthAdjust="spacing" textLength="185.7441" x="497.5761" y="847.4344">sa:tc(K)!(&#963;&#8320;,&#8230;,&#963;_{k&#8722;1}, @OUT)</text><text fill="#000000" font-family="sans" font-size="13" lengthAdjust="spacing" textLength="305.6563" x="437.62" y="865.1404">&#171; accept = the byte-identical &#963;-injection message &#187;</text></g><!--link SIGMA to OUT--><g class="link" data-entity-1="ent0007" data-entity-2="ent0008" data-link-type="dependency" data-source-line="51" id="lnk16"><path d="M537.41,977.9574 C537.41,1004.8574 537.41,1040.8774 537.41,1064.6574" fill="none" id="SIGMA-to-OUT" style="stroke:#C0392B;stroke-width:2;"/><polygon fill="#C0392B" points="537.41,1069.6574,541.41,1060.6574,537.41,1064.6574,533.41,1060.6574,537.41,1069.6574" style="stroke:#C0392B;stroke-width:2;stroke-linejoin:miter;stroke-miterlimit:10;"/><text fill="#000000" font-family="sans" font-size="13" lengthAdjust="spacing" textLength="28.9411" x="538.41" y="1035.8644">&#10214;R&#10215;&#963;</text></g><?plantuml-src TLRDRXit4BxlKqnje9LGoxRi9BRb7rHQhHoXjbL8CdAe2u6IA8anbrH9ogxp0oHnKFIGKvfZYzpIGn-Xjxo0tq5FqXdkIbhRYHSGrjoPuSmtttpaTr0JmudXK2v1UyJ1ZGpd1Sckk05cUYFXUC_HTpq0eGhDaGRBNO5Dd8wPqmhm5wtKCFWE1jgWFuTAkHKLcj6JPhqTmO35Gbwjmf4FMOJSp24FJFNJvGt83OJnYsQYe762qIZIe6WsbUvptDfnCpOSVtTJdqqG5hCQUCEmSNoCgL1WlkeBiPp5qENkadE5qOwAoNORv4KUhDVZOmSnjvODEO1b9TVB_PZ_9dTplG8_D4xR-TN0dWirPeOYiTxvqEY9weTQOftBjOYUZ4MV3zX4kffMxeJ5c01JDlEvf-EnLbovbhkI70p2ojHGyen9sHXzcOP_wFyo7-s8zVKbGeI8IfjrcuU2vm50HPi-DscKhJ8zk4fPfMiRw_G4BpCHnbWSWN3FVwTCprVy0oSSRjhsZ4bwKiuoPlhg0zGJohIGCkKvPOvJ1a2kmYmlDFcbGIUeUQRaWq3o8STUEJq68uOZX_k_s4S0fPwOv4tvthsW3tlBqNPjlHOTl40W1XBtXZMmI1NMXnmrsawwJt4rFpCFTwAjwWCqNt1uRSvYo0a5cF7SkhPLtQa-HEk4dsXwSrr0nBcum7fps57FlOLzLDkArj5UToqt5ym97v_uj0WPhOVRQ89r3Cs4Op7mFM36VT5ZZbkCYgnEoKo14Om4aY2OTMffDau4yd6v7Jwkdnm2u1XzSMByFuf9k7cBiztbKlA-pzlcbs0vUbHx49LzznTSMcfp4yFqz_Tmw6dl_qqHnfhEr9uLptYfM3n85pkK_52Rgyw0Afwjfl1tkaBr4S2zDN8xG7SnSqpcySdZnb4qQzOkDjynMT06iQQ5lJLni0JCGZEg7KLX6zAktqwvbRGTfXy_kUd7Vp8v9eJe80fn1pa_pqBgNWb6vEJOqABdXpT0J2kjzTYuH6-IZIqAaPPzlt_hfsPKhdvv-oDD41IOb629q9TCdcToe62413QQ_zOX2-lnzRPZvaOmVVTNxkRrolJjd_dfkxyNKCqY2DKn8ztnPEtWDaaG11vV5rNvF8yQOHdLTxcw5OMrokqyKUeov5UeaTfa4urHnWG6T4IQpepidTJm5dv-bDVyRuYpd43P5tPCAxjdYkPZuBleWy0OITjoY58TsvHh5C5UnLsDZSOXoFl4owVj1gH3IY9pX_4Rdl6rUZFbEss0PSIY1xqS0PSS1RIFzEteWyURU5uBe-teqLsUP-SPSkXeXNMeq_aiVSGmPWiaxc3TgXyUbo6LYjl1aObDPEBDDO34ymUpGSIz6dXFKeLKChvGwwQlDMoS73PFevCmWcy1sLUjKsTRLBpYb3HB52Wji7glmEZNYPSX2_jdYeuX8Nd12JgYd9cGLgCmBBJ89qQRGgfKTsQCnqmvX7iXM6Sg5mq6f0lOuOhMaZC5PJdaNSDG2HJp7qQCPCmaNQOwvl6nyjbO5tvUteWULIiFLjn8zCuLdixx6xyK3cPpLygeKP2kVTKddO4I44dI8u4vk7aTf5-yvtRbuTPTJqz26l-2KDRHGBF5d12tFAUIoRqzj85tnS3X-kREHkLU6Pug9TZh7cGl7DCthrQchpwjt5ntdfzF_tXVV9bUGVRMkZXbd_-TNLVslLPshr1cH9zJ7qZKhp7Dfuakpoyqd_yBais-cWkHhmHpXWQ1qbXELpiS9xhk9PEO70x80UImeCOrggSXDkznr8myFpENAK8uKVD4FTbuTdN4DKyZB_Wu1MatoF-aqVQEC32uBpcFj7LGrHVSCI7nsrWRjuhkxTatl2Dw_deXn6u8EXVQTUBKF8W_5BsiecSE2Om3uEa-qz_afC4JnrmWFV4ggUGLKHEvgmthIOxtFxg642hti4ddmyyRnWyN9tbFQiiJ42v7cYQD3awbJOoTGYcC8UThu8MXOUCHZELaEAIRxox64OvgmRtmpN8vGDePp84_kz0JkqZdVm00?></g></svg>